<?xml version="1.0" encoding="UTF-8" standalone="no"?>
<!-- Created with Inkscape (http://www.inkscape.org/) -->

<svg
   width="171.83875mm"
   height="206.82494mm"
   viewBox="0 0 171.83875 206.82494"
   version="1.1"
   id="svg1"
   xml:space="preserve"
   xmlns="http://www.w3.org/2000/svg"
   xmlns:svg="http://www.w3.org/2000/svg"><defs
     id="defs1"><clipPath
       clipPathUnits="userSpaceOnUse"
       id="clipPath2"><rect
         style="fill:none;stroke:#000000;stroke-width:1.4;stroke-dasharray:none;stroke-opacity:1"
         id="rect2"
         width="171.83875"
         height="206.82494"
         x="-271.16678"
         y="45.214287" /></clipPath></defs><g
     id="layer1"
     transform="translate(-18.295041,-50.318137)"><path
       style="fill:#000000"
       d="M -298.99598,141.78718 V 28.898292 h 7.76111 7.76111 V 141.78718 254.67607 h -7.76111 -7.76111 z m 18.69722,110.6499 c 0,-1.23145 0.15527,-5.95426 0.34504,-10.49514 0.18978,-4.54088 0.5088,-10.79615 0.70895,-13.9006 0.20015,-3.10444 0.4364,-6.83507 0.52501,-8.29027 0.0886,-1.45521 0.40273,-5.50334 0.69805,-8.99584 0.29533,-3.4925 0.62194,-10.16 0.72581,-14.81666 l 0.18885,-8.46667 -0.425,-25.22361 c -0.23375,-13.87299 -0.44452,-34.43111 -0.46839,-45.68472 -0.0239,-11.25361 -0.0827,-29.430489 -0.13072,-40.393058 -0.048,-10.962569 0.0199,-22.789443 0.15105,-26.281943 0.13112,-3.4925 0.26229,-7.179427 0.29151,-8.193172 l 0.0531,-1.843171 0.3748,-0.374799 0.3748,-0.374799 1.02064,0.388048 1.02065,0.388048 6.35694,-0.53622 c 3.49632,-0.294921 8.57944,-0.627261 11.29583,-0.738534 2.71639,-0.111273 7.47889,-0.35804 10.58333,-0.548371 3.10445,-0.190332 6.91445,-0.421685 8.46667,-0.514119 1.55222,-0.09244 12.74409,-0.194359 24.87083,-0.2265 12.12674,-0.03214 41.33673,-0.03553 64.91111,-0.0075 23.57437,0.02799 44.76975,-0.01278 47.10084,-0.09059 2.331084,-0.07781 4.833604,-0.253155 5.561154,-0.389644 l 1.32281,-0.248161 -0.18844,10.535319 c -0.10364,5.794426 -0.25432,14.504069 -0.33483,19.354764 -0.0805,4.850694 -0.23583,30.647573 -0.34515,57.326382 -0.10931,26.67882 -0.23866,54.6982 -0.28743,62.26528 -0.0488,7.56708 0.0544,25.02958 0.22925,38.80555 l 0.31793,25.04723 -0.25781,2.38125 -0.25781,2.38125 -0.94206,-4.3e-4 -0.94206,-4.3e-4 -0.11717,-27.78082 c -0.0644,-15.27945 -0.12928,-29.92395 -0.14408,-32.54332 -0.0148,-2.61938 0.0768,-28.97188 0.20364,-58.56111 0.1268,-29.58924 0.31733,-58.799235 0.4234,-64.91111 0.10606,-6.111875 0.30527,-13.17625 0.44269,-15.698611 0.13742,-2.522361 0.19927,-6.133923 0.13745,-8.025694 l -0.1124,-3.439583 -7.295944,-0.03014 c -4.01276,-0.01658 -9.43905,-0.08855 -12.05843,-0.15994 -2.61937,-0.07139 -6.90562,-0.254155 -9.525,-0.406143 -2.61937,-0.151987 -5.08,-0.248203 -5.46805,-0.213811 -0.38806,0.03439 -8.48431,0.05089 -17.99167,0.03667 -9.50736,-0.01422 -18.39736,-0.0794 -19.75555,-0.144849 -1.3582,-0.06545 -9.9742,-0.22339 -19.14668,-0.350984 l -16.67722,-0.23199 -8.01722,0.404811 c -4.40947,0.222646 -9.36659,0.490634 -11.01582,0.595528 -1.64924,0.104894 -4.60818,0.34348 -6.57543,0.530192 l -3.57681,0.339475 -16.53152,-0.06799 -16.53152,-0.06799 -3.52778,0.277335 -3.52778,0.277335 -1.10448,0.452619 -1.10448,0.45262 -0.26723,14.411264 -0.26723,14.411264 0.24834,10.406944 c 0.13658,5.723819 0.27761,13.264448 0.31338,16.756948 0.0358,3.4925 0.004,11.1125 -0.0699,16.93333 l -0.13494,10.58333 0.43841,25.75278 c 0.24112,14.16403 0.41939,29.1659 0.39615,33.3375 -0.0232,4.17159 -0.20879,10.91847 -0.41234,14.99305 -0.20354,4.07459 -0.50768,8.75771 -0.67586,10.40695 -0.16817,1.64923 -0.54956,7.99923 -0.84753,14.11111 -0.29797,6.11187 -0.6271,12.065 -0.73141,13.22916 -0.10431,1.16417 -0.20342,4.10105 -0.22023,6.52639 -0.0168,2.42535 -0.11443,5.08441 -0.21692,5.90903 l -0.18634,1.49931 h -0.8419 -0.84189 z m 27.34028,-210.325338 19.05,-0.112712 4.7625,-0.386456 c 2.61937,-0.212551 6.58812,-0.537023 8.81944,-0.72105 2.23132,-0.184027 8.66069,-0.434803 14.2875,-0.557281 5.62681,-0.122478 10.38931,-0.204822 10.58333,-0.182987 0.19403,0.02184 3.68653,0.104918 7.76112,0.184629 4.07458,0.07971 15.74271,0.272866 25.92916,0.429234 10.18646,0.156368 19.39396,0.282842 20.46111,0.281053 1.06716,-0.0018 3.68653,-0.132711 5.82084,-0.290937 l 3.88055,-0.287685 4.0897,0.40692 4.08969,0.406921 12.84364,0.101325 c 7.064,0.05573 13.129994,0.02691 13.479984,-0.06405 l 0.63635,-0.165373 -0.10718,-0.92403 -0.10718,-0.924029 -37.923614,0.151119 c -20.85798,0.08312 -40.38423,0.150187 -43.39166,0.149047 -3.00743,-0.0011 -9.75431,-0.179724 -14.99306,-0.396854 l -9.525,-0.394783 -19.22639,0.33199 -19.22639,0.33199 -4.23333,0.35037 c -2.32834,0.192703 -7.80521,0.514524 -12.17084,0.715156 -4.36562,0.200633 -10.22633,0.559777 -13.0238,0.798098 l -5.08631,0.433311 -0.16299,0.490259 -0.16299,0.49026 1.89791,-0.265373 1.89791,-0.265373 z m 9.85737,212.244568 c 0.10869,-0.17587 0.94009,-0.57274 1.84755,-0.88194 l 1.64993,-0.56219 h 1.63702 1.63701 l 1.81277,0.53833 c 0.99702,0.29608 1.90832,0.69296 2.02512,0.88194 l 0.21237,0.34362 h -5.5097 -5.50969 z m 105.82171,0.0188 c 0.10231,-0.16553 1.10386,-0.5917 2.22568,-0.94704 l 2.03968,-0.64609 2.34644,0.032 2.34644,0.032 1.27523,0.60513 c 0.70137,0.33282 1.3614,0.74458 1.46674,0.91501 l 0.19151,0.30989 h -6.03886 -6.03886 z M -86.623756,141.78718 V 28.898292 h 6.702777 6.70277 V 141.78718 254.67607 h -6.70277 -6.702777 z M -189.45848,252.51923 c -1.3582,-0.18195 -3.8982,-0.65297 -5.64445,-1.0467 -1.74625,-0.39373 -4.97672,-1.02464 -7.17882,-1.40201 l -4.00383,-0.68613 -2.34617,-0.8473 c -1.2904,-0.46602 -2.9018,-1.04292 -3.5809,-1.28201 -0.6791,-0.23909 -1.51038,-0.57217 -1.8473,-0.74019 -0.33691,-0.16802 -0.79189,-0.30549 -1.01107,-0.30549 -0.21917,0 -1.1554,-0.55563 -2.08052,-1.23472 -0.92512,-0.6791 -1.78199,-1.23473 -1.90416,-1.23473 -0.12217,0 -2.0059,-1.05612 -4.18607,-2.34694 -2.18016,-1.29082 -4.83706,-2.916 -5.90421,-3.6115 -1.06716,-0.69551 -2.46174,-1.70313 -3.09908,-2.23917 -0.63735,-0.53603 -1.29515,-0.97461 -1.46179,-0.97461 -0.16664,0 -1.23268,-0.91618 -2.36897,-2.03595 -1.1363,-1.11978 -2.53408,-2.66759 -3.10619,-3.43959 -0.5721,-0.77199 -1.30049,-1.64175 -1.61864,-1.93279 -0.31815,-0.29104 -1.27882,-1.53541 -2.13481,-2.76526 -0.856,-1.22985 -1.73273,-2.49985 -1.94831,-2.82222 -0.21557,-0.32237 -1.42611,-2.17363 -2.69008,-4.11391 -1.26398,-1.94028 -2.64266,-4.21034 -3.06373,-5.04458 -0.42108,-0.83425 -1.21832,-2.81862 -1.77165,-4.40973 -0.55333,-1.5911 -1.24424,-3.76604 -1.53536,-4.83319 -0.29112,-1.06715 -0.7896,-3.36903 -1.10775,-5.11528 -0.31814,-1.74625 -0.74482,-3.88937 -0.94817,-4.7625 -0.20335,-0.87312 -0.49007,-3.57187 -0.63715,-5.99722 l -0.26742,-4.40972 0.33572,-3.88056 0.33572,-3.88055 0.87179,-3.35139 c 0.47948,-1.84326 1.20055,-4.30389 1.60238,-5.46806 0.40182,-1.16416 1.49674,-4.12603 2.43315,-6.58193 0.93641,-2.4559 2.33994,-5.78965 3.11897,-7.40833 0.77902,-1.61869 1.41777,-3.10912 1.41944,-3.31207 0.002,-0.20295 0.71741,-1.52768 1.59054,-2.94385 0.87312,-1.41616 1.5875,-2.71325 1.5875,-2.88242 0,-0.16916 0.72608,-1.1463 1.61351,-2.17142 0.88742,-1.02513 2.19711,-2.52481 2.91041,-3.33264 0.7133,-0.80783 2.24662,-2.55408 3.40739,-3.88056 1.16076,-1.32647 3.04787,-3.20552 4.19358,-4.17566 1.14571,-0.97014 2.89474,-2.36714 3.88675,-3.10445 0.992,-0.73731 3.51367,-2.40419 5.60372,-3.70417 2.09005,-1.29998 4.95948,-3.08469 6.37651,-3.96602 l 2.57643,-1.60241 4.12891,-1.69042 4.12891,-1.69042 3.25291,-0.70585 c 1.7891,-0.38821 5.07854,-0.88647 7.30986,-1.10725 l 4.05694,-0.4014 4.93889,0.0648 c 2.71639,0.0357 5.89139,0.22332 7.05556,0.41703 1.16416,0.19372 5.52979,1.2226 9.70139,2.28642 4.17159,1.06381 8.53656,2.18964 9.69993,2.50186 l 2.11521,0.56765 3.88201,1.96997 c 2.13511,1.08348 4.27889,2.23806 4.76396,2.56573 0.48507,0.32767 1.51834,0.91865 2.29616,1.3133 0.77782,0.39465 2.28595,1.33524 3.35139,2.0902 1.06544,0.75496 3.28654,2.72483 4.93578,4.37749 1.64924,1.65266 3.6592,3.7959 4.46658,4.76277 0.80739,0.96686 2.23614,2.74691 3.175,3.95565 0.93887,1.20874 2.24638,2.92165 2.90558,3.80646 0.65921,0.88481 1.49811,2.16764 1.86422,2.85073 0.36611,0.68308 1.1444,2.44712 1.72952,3.92008 0.58512,1.47295 1.52325,4.51928 2.08473,6.76961 0.56148,2.25033 1.2646,5.36151 1.56249,6.91374 0.29788,1.55222 0.72015,5.28284 0.93836,8.29027 l 0.39676,5.46806 -0.22227,3.70417 c -0.12225,2.03729 -0.3845,4.89479 -0.58278,6.35 -0.19828,1.4552 -0.52666,3.59833 -0.72973,4.7625 -0.20307,1.16416 -0.69029,3.62479 -1.08269,5.46805 -0.39241,1.84327 -0.84548,3.98639 -1.00683,4.7625 -0.16134,0.77611 -0.92375,3.47486 -1.69424,5.99722 -0.77048,2.52236 -1.81769,5.59285 -2.32711,6.82331 -0.50943,1.23046 -1.29656,2.82383 -1.74918,3.54083 -0.45262,0.717 -1.33592,2.31984 -1.9629,3.56187 -0.62697,1.24202 -2.01157,3.53803 -3.07689,5.10222 -1.06531,1.5642 -3.36005,4.54369 -5.09941,6.6211 -1.73936,2.07741 -4.45115,4.9894 -6.02619,6.47109 l -2.86371,2.69397 -4.96285,2.38517 c -2.72957,1.31184 -5.83597,2.67005 -6.90313,3.01825 -1.06715,0.34819 -2.49355,0.92694 -3.16977,1.2861 -0.67623,0.35917 -1.46998,0.65493 -1.76389,0.65725 -0.29392,0.002 -2.51877,0.50104 -4.94411,1.10827 l -4.40973,1.10405 -4.40972,0.26112 c -2.42535,0.14362 -5.60035,0.34529 -7.05555,0.44817 l -2.64584,0.18706 z m 16.58055,-7.94699 c 1.16417,-0.28301 2.83105,-0.68215 3.70417,-0.88698 0.87313,-0.20483 1.73831,-0.51445 1.92264,-0.68803 l 0.33514,-0.31561 -0.68792,0.003 c -0.37835,0.001 -1.71979,0.18184 -2.98097,0.40084 -1.26118,0.21899 -4.35681,0.44469 -6.87917,0.50154 -2.52236,0.0569 -6.80861,0.23367 -9.525,0.39291 l -4.93889,0.28954 0.51506,0.33119 0.51506,0.33119 3.3655,0.20145 c 1.85102,0.11079 5.42924,0.14574 7.95161,0.0777 l 4.58611,-0.12379 z m -3.52777,-2.01251 4.93888,-0.1064 2.73427,-0.59453 c 1.50385,-0.32699 3.72635,-0.97157 4.93889,-1.43239 1.21254,-0.46083 3.63337,-1.52229 5.37962,-2.35882 l 3.175,-1.52095 1.76389,-1.64401 c 0.97014,-0.9042 2.39916,-2.10352 3.17561,-2.66515 0.77644,-0.56162 2.70729,-2.37051 4.29076,-4.01975 1.58348,-1.64923 3.19098,-3.39584 3.57223,-3.88136 0.38125,-0.48551 1.16858,-1.93122 1.74963,-3.21269 0.58105,-1.28147 1.99465,-3.74174 3.14133,-5.46725 1.14668,-1.72552 2.66441,-4.32793 3.37273,-5.78314 0.70832,-1.45521 1.62941,-3.75708 2.04686,-5.11528 0.41746,-1.35819 1.22186,-3.89859 1.78757,-5.64532 l 1.02856,-3.17587 v -1.28342 c 0,-0.70588 0.40855,-2.84862 0.9079,-4.76163 l 0.90789,-3.4782 0.38157,-4.58611 0.38157,-4.58611 -0.4351,-4.58612 c -0.2393,-2.52236 -0.67337,-5.61798 -0.9646,-6.87916 -0.29122,-1.26118 -0.7677,-3.24556 -1.05883,-4.40972 -0.29114,-1.16417 -0.65044,-2.59292 -0.79846,-3.175 -0.14802,-0.58209 -0.96076,-2.56646 -1.80608,-4.40973 -0.84533,-1.84326 -2.41815,-4.81787 -3.49516,-6.61025 l -1.9582,-3.25886 -3.35139,-3.77961 c -1.84326,-2.07878 -4.78014,-5.27465 -6.52639,-7.10194 l -3.175,-3.32232 -2.82222,-1.82295 c -1.55222,-1.00262 -3.5366,-2.23221 -4.40972,-2.73243 -0.87313,-0.50021 -2.69875,-1.24404 -4.05695,-1.65294 -1.35819,-0.4089 -3.26319,-0.91122 -4.23333,-1.11627 -0.97014,-0.20505 -3.11326,-0.67292 -4.7625,-1.03971 -1.64924,-0.3668 -4.74486,-0.91881 -6.87917,-1.22669 -2.1343,-0.30788 -4.6743,-0.55435 -5.64444,-0.54772 -0.97014,0.007 -2.95452,0.16008 -4.40972,0.341 -1.45521,0.18092 -3.88818,0.49373 -5.40659,0.69512 l -2.76076,0.36617 -2.94636,1.03994 c -1.62049,0.57197 -3.23565,1.20189 -3.58924,1.39983 -0.35359,0.19794 -1.91289,0.86772 -3.46511,1.48839 -1.55222,0.62068 -4.44408,1.9992 -6.42635,3.06339 l -3.60412,1.93488 -4.86254,4.00168 c -2.6744,2.20093 -5.88261,4.91553 -7.12935,6.03246 l -2.26679,2.03078 -2.67209,3.41373 c -1.46965,1.87755 -3.48008,4.5763 -4.46761,5.99722 -0.98753,1.42092 -2.43156,3.77412 -3.20895,5.22933 -0.77738,1.4552 -1.85406,3.9952 -2.39261,5.64444 -0.53855,1.64924 -1.4901,4.03049 -2.11455,5.29167 l -1.13536,2.29305 -0.79449,5.95673 -0.79449,5.95673 -0.0168,5.68494 -0.0168,5.68494 1.82608,5.99722 1.82607,5.99722 1.19586,2.53944 c 0.65772,1.39669 1.94359,3.77794 2.8575,5.29167 0.9139,1.51372 2.78463,4.1016 4.15718,5.75083 1.37254,1.64924 3.13683,3.67233 3.92063,4.49576 0.78381,0.82342 2.21886,2.03146 3.189,2.68452 0.97013,0.65306 3.11326,2.07406 4.7625,3.15778 1.64923,1.08372 3.7031,2.6167 4.56416,3.40661 l 1.56555,1.43622 1.96222,0.9131 c 1.07923,0.50221 3.37898,1.62705 5.11055,2.49963 1.73158,0.87258 3.8747,1.79379 4.7625,2.04712 0.8878,0.25334 2.69989,0.8747 4.02687,1.3808 1.32697,0.50611 4.02572,1.22947 5.99722,1.60749 l 3.58454,0.6873 5.46805,-0.17147 c 3.00743,-0.0943 7.69056,-0.21934 10.40695,-0.27786 z m -19.57917,-2.68561 c -1.06716,-0.34036 -3.18153,-1.20584 -4.69862,-1.92329 l -2.75833,-1.30447 -3.52222,-0.87148 c -1.93722,-0.47932 -4.27221,-1.15647 -5.18886,-1.50477 -0.91666,-0.3483 -2.93228,-1.48086 -4.47917,-2.51679 -1.54689,-1.03594 -3.84359,-2.6918 -5.10377,-3.67969 -1.26019,-0.9879 -2.67702,-2.11367 -3.14851,-2.50173 -0.4715,-0.38806 -1.68448,-1.41993 -2.69552,-2.29306 -1.01104,-0.87312 -2.74205,-2.36254 -3.84669,-3.30981 -1.10465,-0.94727 -3.17468,-3.05627 -4.60007,-4.68668 l -2.59164,-2.96437 -1.74063,-3.42721 c -0.95734,-1.88496 -2.1497,-4.6972 -2.64967,-6.24943 -0.49997,-1.55222 -1.0974,-3.85409 -1.32761,-5.11527 l -0.41856,-2.29306 -0.0104,-4.58611 c -0.006,-2.52236 0.10977,-5.69736 0.2566,-7.05555 0.14683,-1.3582 0.55402,-3.66007 0.90485,-5.11528 0.35084,-1.45521 0.74309,-3.36021 0.87167,-4.23334 0.12859,-0.87312 0.488,-2.54 0.79871,-3.70416 0.3107,-1.16417 1.22546,-3.54949 2.0328,-5.30072 l 1.46789,-3.18405 1.59509,-2.10762 c 0.87729,-1.15918 2.22986,-3.21886 3.0057,-4.57706 0.77584,-1.35819 2.08398,-3.56417 2.90699,-4.90218 0.823,-1.33801 2.61437,-3.95739 3.98083,-5.82084 1.36646,-1.86345 3.69221,-4.64725 5.16832,-6.18623 1.47611,-1.53898 3.16009,-3.2712 3.74218,-3.84936 0.58208,-0.57817 2.12614,-1.74521 3.43124,-2.59342 1.3051,-0.8482 4.76395,-2.71313 7.68634,-4.14427 2.92238,-1.43114 5.53253,-2.78392 5.80033,-3.00617 0.2678,-0.22226 1.80957,-0.72332 3.42616,-1.11347 1.61659,-0.39015 4.44738,-0.84257 6.29065,-1.00538 1.84326,-0.16281 4.68071,-0.49744 6.30544,-0.74362 l 2.95406,-0.44759 3.74872,0.44612 3.74872,0.44613 3.175,0.87511 c 1.74625,0.48131 4.36563,1.39543 5.82084,2.03138 1.45521,0.63594 4.11967,1.75979 5.92102,2.49743 1.80136,0.73765 4.18261,1.94439 5.29167,2.68166 1.10906,0.73726 2.76623,2.02293 3.6826,2.85704 0.91637,0.8341 2.66262,2.80504 3.88056,4.37985 1.21793,1.57482 3.40505,4.29507 4.86026,6.04502 1.45521,1.74994 3.22363,4.1127 3.92983,5.25059 0.70621,1.13788 2.02022,3.49762 2.92004,5.24387 l 1.63602,3.175 1.22511,4.39123 1.22511,4.39122 0.007,1.42961 c 0.004,0.78628 0.16275,2.46148 0.35299,3.72266 0.19025,1.26118 0.35574,4.30206 0.36776,6.7575 l 0.0219,4.46444 -0.56207,3.47306 c -0.30913,1.91018 -0.88894,5.21931 -1.28846,7.35361 l -0.72639,3.88056 -1.76408,4.23333 c -0.97024,2.32833 -2.94068,6.61458 -4.37877,9.525 -1.43809,2.91042 -3.13032,5.96355 -3.76052,6.78474 -0.63019,0.82118 -2.17768,2.86317 -3.43887,4.53776 -1.26118,1.67458 -3.08061,3.91095 -4.04318,4.96971 -0.96256,1.05877 -2.50235,2.47722 -3.42174,3.15211 l -1.67162,1.22708 -5.3977,2.4684 c -2.96873,1.35762 -5.87395,2.69336 -6.45603,2.96832 -0.58209,0.27495 -2.72521,0.89214 -4.7625,1.37153 -2.03729,0.47939 -5.60917,1.1161 -7.9375,1.41491 l -4.23333,0.54328 -4.93889,-0.0264 -4.9389,-0.0264 z m 16.69231,-1.06803 c 2.55791,-0.3853 5.65338,-0.96138 6.87882,-1.28018 l 2.22807,-0.57965 -0.24094,-2.24984 -0.24094,-2.24983 0.38924,-0.469 0.38924,-0.46901 -1.40231,-5.43778 c -0.77126,-2.99078 -1.57215,-6.39029 -1.77974,-7.55446 -0.2076,-1.16416 -0.86306,-3.86291 -1.45659,-5.99722 -0.59352,-2.1343 -1.51912,-5.42171 -2.05687,-7.30536 l -0.97774,-3.4248 -3.08807,-2.9252 c -1.69843,-1.60885 -4.13695,-3.76352 -5.41891,-4.78813 l -2.33085,-1.86294 -0.68132,0.0991 -0.68132,0.0991 -2.36286,3.25057 -2.36285,3.25057 -0.23459,2.74665 c -0.12903,1.51066 -0.46376,4.4929 -0.74386,6.62721 -0.28011,2.1343 -0.74934,7.05555 -1.04276,10.93611 -0.29341,3.88056 -0.68512,8.48431 -0.87045,10.23056 -0.18534,1.74625 -0.4384,4.31414 -0.56235,5.70642 l -0.22537,2.53143 1.1797,0.6362 1.1797,0.6362 5.64444,0.20771 c 3.10445,0.11424 5.77411,0.23662 5.93259,0.27195 0.15848,0.0353 2.38098,-0.25099 4.93889,-0.63628 z m -21.27842,-3.7124 v -1.23793 l 1.00639,-1.0531 1.0064,-1.0531 0.24423,-2.55966 c 0.13433,-1.40782 0.39112,-3.75029 0.57066,-5.2055 0.17953,-1.45521 0.48353,-5.0172 0.67555,-7.91555 0.19201,-2.89834 0.50331,-6.39084 0.69176,-7.76111 0.18845,-1.37027 0.43431,-3.40421 0.54635,-4.51987 l 0.20371,-2.02847 h -0.31399 c -0.17269,0 -0.76017,0.59531 -1.30549,1.32292 -0.54533,0.7276 -1.67278,2.11666 -2.50545,3.0868 -0.83267,0.97014 -2.82025,3.35139 -4.41686,5.29167 -1.59661,1.94028 -4.57581,5.53343 -6.62045,7.98478 -2.04465,2.45136 -4.55097,5.52189 -5.56962,6.82342 -1.01865,1.30152 -1.85208,2.55596 -1.85208,2.78765 v 0.42124 l 3.13962,1.95473 3.13963,1.95474 2.7694,0.61688 c 1.52317,0.33928 3.80128,0.98259 5.06246,1.42957 1.26118,0.44699 2.57087,0.83185 2.91041,0.85526 l 0.61737,0.0426 z m 35.45416,-0.0319 c 0.58209,-0.30797 2.64584,-1.27299 4.58612,-2.14448 1.94027,-0.8715 4.32152,-2.07964 5.29166,-2.68476 0.97014,-0.60512 2.20045,-1.54268 2.73403,-2.08347 0.53358,-0.54078 0.97014,-1.11884 0.97014,-1.28456 0,-0.16572 -0.3175,-0.58865 -0.70556,-0.93983 -0.38805,-0.35119 -0.71567,-0.89173 -0.72804,-1.20121 l -0.0225,-0.56268 -1.65321,-1.35521 c -0.90926,-0.74536 -3.63758,-3.28577 -6.06292,-5.64535 -2.42535,-2.35959 -5.4416,-5.15766 -6.70278,-6.21795 -1.26118,-1.06028 -3.44447,-3.00456 -4.85176,-4.32061 -1.40729,-1.31606 -2.71697,-2.39283 -2.91042,-2.39283 -0.19344,0 -0.35171,0.23369 -0.35171,0.51931 0,0.28561 0.53246,2.5478 1.18325,5.02708 0.65078,2.47928 1.37711,5.38091 1.61406,6.44806 0.23695,1.06715 0.99162,4.0834 1.67704,6.70278 0.68542,2.61937 1.62409,6.13629 2.08594,7.81538 0.46184,1.67909 0.99641,3.46502 1.18792,3.96875 l 0.34822,0.91587 0.62609,-0.002 c 0.34435,-0.001 1.10234,-0.25414 1.68442,-0.56211 z m -33.69028,-0.31766 c 0,-0.29104 -0.15875,-0.52916 -0.35277,-0.52916 -0.19403,0 -0.35278,0.23812 -0.35278,0.52916 0,0.29104 0.15875,0.52917 0.35278,0.52917 0.19402,0 0.35277,-0.23813 0.35277,-0.52917 z m -19.41519,-7.91431 c 0.20086,-0.3753 0.36519,-0.79678 0.36519,-0.93662 0,-0.13984 -0.3175,0.0331 -0.70555,0.38427 -0.38806,0.35118 -0.70556,0.77266 -0.70556,0.93662 0,0.16395 0.15317,0.2981 0.34037,0.2981 0.1872,0 0.5047,-0.30707 0.70555,-0.68237 z m -0.69314,-1.61069 1.55801,-1.5875 h 0.98489 0.98488 v -0.29266 c 0,-0.16096 0.89624,-1.28304 1.99165,-2.4935 1.0954,-1.21046 2.32571,-2.65833 2.73402,-3.21748 0.40831,-0.55915 2.09588,-2.57239 3.75015,-4.47386 1.65427,-1.90147 4.37197,-5.1277 6.03934,-7.16941 1.66737,-2.0417 3.50871,-4.50232 4.09185,-5.46805 l 1.06027,-1.75587 0.57373,-2.46944 c 0.31555,-1.3582 0.61322,-3.5807 0.66149,-4.93889 l 0.0878,-2.46945 -0.88194,-0.10112 c -0.48507,-0.0556 -2.39007,0.22264 -4.23333,0.61837 -1.84327,0.39572 -5.0779,1.10244 -7.18808,1.57048 l -3.83668,0.85098 -1.45498,1.37821 c -0.80024,0.75802 -2.96311,2.64165 -4.80637,4.18584 -1.84327,1.54419 -5.08883,4.14678 -7.21236,5.78354 -2.12353,1.63676 -4.82228,3.87293 -5.99722,4.96927 -1.17494,1.09635 -2.53313,2.32481 -3.0182,2.72992 -0.48507,0.40511 -1.34628,1.11668 -1.91381,1.58125 l -1.03186,0.84469 0.76959,1.24521 c 0.42327,0.68487 1.69694,2.09793 2.83037,3.14012 1.13343,1.0422 3.23582,2.88615 4.67199,4.09768 1.43617,1.21152 3.40206,2.83871 4.36864,3.61597 0.96658,0.77726 2.00509,1.4132 2.3078,1.4132 h 0.55038 z m 72.02844,-3.84244 c 1.03318,-1.33723 2.47608,-3.24223 3.20646,-4.23333 0.73037,-0.9911 2.14293,-3.41222 3.13902,-5.38025 l 1.81108,-3.57825 -0.23039,-0.60039 -0.23039,-0.60038 -0.69209,-0.18098 -0.69209,-0.18099 -0.2001,-0.63043 c -0.11005,-0.34674 -0.95967,-1.32179 -1.88805,-2.16678 -0.92837,-0.84498 -3.10578,-2.52585 -4.83867,-3.73526 -1.73289,-1.20941 -5.29384,-3.62264 -7.91322,-5.36273 l -4.7625,-3.1638 -6.87916,-0.37357 c -3.78354,-0.20546 -8.04824,-0.54428 -9.47711,-0.75294 l -2.59794,-0.37937 -0.28537,0.29484 -0.28537,0.29483 0.42308,1.5875 c 0.2327,0.87313 0.68816,2.30188 1.01213,3.175 0.32397,0.87313 0.8458,2.5196 1.15962,3.65883 l 0.57058,2.07133 2.71172,2.72314 c 1.49144,1.49773 3.82296,3.65033 5.18116,4.78356 1.35819,1.13323 4.85069,4.3224 7.76111,7.08705 2.91041,2.76465 5.90422,5.51037 6.6529,6.1016 l 1.36124,1.07496 0.71624,-0.38332 0.71624,-0.38332 0.86026,1.09922 0.86026,1.09921 0.47542,-0.26683 c 0.26148,-0.14675 1.32075,-1.36092 2.35393,-2.69815 z m -88.4326,-10.09228 0.63851,-0.70556 h -0.57143 -0.57143 l -0.3776,0.70556 -0.3776,0.70556 h 0.31051 c 0.17079,0 0.59785,-0.3175 0.94904,-0.70556 z m -0.88195,-1.41111 1.13295,-1.05833 h 0.59769 c 0.32873,0 0.76028,0.16258 0.959,0.3613 l 0.3613,0.3613 2.79606,-2.4041 c 1.53783,-1.32225 3.82793,-3.18395 5.08911,-4.1371 1.26118,-0.95315 3.95162,-3.08983 5.97875,-4.74818 2.02713,-1.65834 4.20994,-3.52581 4.85069,-4.14994 0.64076,-0.62412 1.16501,-1.31865 1.16501,-1.5434 v -0.40863 l -1.14653,0.24428 c -0.63059,0.13436 -2.8134,0.54796 -4.8507,0.91912 -2.03729,0.37116 -5.84729,1.0035 -8.46666,1.40521 -2.61938,0.4017 -5.25002,0.88107 -5.84588,1.06525 -0.59586,0.18419 -1.62774,0.34007 -2.29306,0.3464 -0.66532,0.006 -2.0828,0.33389 -3.14995,0.72791 -1.06715,0.39401 -2.31051,0.8067 -2.76301,0.91709 -0.4525,0.11039 -0.90098,0.40463 -0.99662,0.65387 -0.0956,0.24924 0.097,1.45855 0.42818,2.68736 0.33114,1.22881 1.39976,3.94076 2.37472,6.02656 l 1.77264,3.79236 h 0.43668 c 0.24018,0 0.94651,-0.47625 1.56963,-1.05833 z m 99.46702,-6.35282 c 0.56379,-1.25963 1.53636,-3.58195 2.16126,-5.16072 l 1.13619,-2.87048 -0.23384,-0.60939 -0.23385,-0.60939 -0.86869,0.16606 -0.86868,0.16606 -0.59272,-0.65494 -0.59271,-0.65494 h -1.11428 c -0.61285,0 -2.88311,-0.23329 -5.045,-0.51843 -2.1619,-0.28514 -5.96181,-0.61377 -8.44424,-0.73028 -2.48243,-0.11651 -4.70687,-0.27316 -4.94319,-0.3481 -0.23632,-0.0749 -0.51508,0.002 -0.61948,0.17085 l -0.1898,0.30711 2.02588,1.60713 c 1.11424,0.88393 2.82176,2.03466 3.79448,2.55717 0.97273,0.52252 2.48297,1.53427 3.3561,2.24833 0.87312,0.71406 2.46062,1.86287 3.52777,2.55291 1.06716,0.69004 2.89278,2.06003 4.05695,3.04441 1.16416,0.98438 2.23954,1.75313 2.38972,1.70833 0.15018,-0.0448 0.73434,-1.11207 1.29813,-2.37169 z m -41.61146,-4.91584 c 0,-0.1829 -0.55737,-2.03405 -1.2386,-4.11367 -0.68124,-2.07961 -1.41505,-3.99372 -1.6307,-4.25356 l -0.39209,-0.47244 h -1.90842 -1.90841 l -1.2198,0.50966 -1.2198,0.50967 0.1972,0.46047 c 0.10847,0.25326 1.16866,1.25422 2.35599,2.22436 1.18733,0.97014 3.04166,2.59413 4.12073,3.60887 1.07908,1.01473 2.16039,1.84817 2.40293,1.85208 0.24253,0.004 0.44097,-0.14254 0.44097,-0.32544 z m -63.5,-2.66606 v -0.52917 h -0.70556 -0.70555 v 0.52917 0.52916 h 0.70555 0.70556 z m 10.23055,-1.54435 c 3.39549,-0.59274 7.28486,-1.24958 8.64306,-1.45964 1.35819,-0.21006 3.18382,-0.52574 4.05694,-0.7015 0.87313,-0.17577 3.01625,-0.58642 4.7625,-0.91257 l 3.175,-0.59299 1.76389,-1.60534 c 0.97014,-0.88294 3.3123,-3.04239 5.20481,-4.79879 l 3.44092,-3.19345 -0.11515,-0.34548 c -0.0633,-0.19 -1.05613,-1.02356 -2.2062,-1.85233 -1.15008,-0.82877 -3.36105,-2.35198 -4.91327,-3.38491 -1.55222,-1.03293 -3.54577,-2.30182 -4.4301,-2.81977 l -1.60788,-0.94172 -2.80184,-0.53935 c -1.54102,-0.29664 -3.67497,-0.71688 -4.74212,-0.93386 -1.06716,-0.21698 -4.859,-0.75546 -8.42632,-1.19663 l -6.48604,-0.80211 -2.15702,0.80374 -2.15701,0.80375 -0.62956,2.77809 c -0.34626,1.52796 -0.86506,3.80997 -1.15288,5.07115 -0.28782,1.26118 -0.74062,4.27743 -1.00623,6.70278 l -0.48292,4.40972 0.22468,2.64584 0.22469,2.64583 1.36212,0.11183 1.36212,0.11182 0.18867,0.72147 0.18867,0.72147 1.27143,-0.18467 c 0.69929,-0.10157 4.04956,-0.66964 7.44504,-1.26238 z m 40.00476,-0.97535 1.56231,-1.99054 -0.18113,-0.47202 -0.18113,-0.47202 -1.25472,-0.34644 c -0.69009,-0.19054 -1.38187,-0.26785 -1.5373,-0.17179 -0.15542,0.0961 -0.257,0.60604 -0.22574,1.1333 0.0313,0.52726 -0.0646,1.71271 -0.2131,2.63435 l -0.26996,1.67569 h 0.36924 c 0.20308,0 1.07227,-0.89574 1.93153,-1.99053 z m 55.67488,-1.65175 c 0.72138,-0.32508 1.71054,-0.59105 2.19814,-0.59105 h 0.88656 l 0.16236,-0.79375 c 0.0893,-0.43657 0.43044,-2.77813 0.75811,-5.20347 l 0.59576,-4.40973 -0.22546,-4.40972 c -0.12401,-2.42535 -0.32365,-4.7736 -0.44365,-5.21833 l -0.21819,-0.80862 -1.55632,0.23339 -1.55633,0.23338 -0.68264,-0.61777 -0.68263,-0.61778 -2.39031,0.22376 c -1.31467,0.12306 -3.73969,0.30636 -5.38893,0.40733 -1.64923,0.10096 -3.79236,0.32416 -4.7625,0.49599 -0.97013,0.17183 -3.11326,0.47861 -4.7625,0.68175 -1.64923,0.20313 -4.26861,0.53621 -5.82083,0.74017 -1.55222,0.20396 -3.45722,0.37541 -4.23333,0.38101 l -1.41111,0.0102 -0.77419,0.43041 c -0.4258,0.23673 -2.16496,1.69954 -3.86479,3.25069 -1.69983,1.55116 -3.38843,3.11101 -3.75243,3.46635 l -0.66183,0.64606 0.60991,0.67395 c 0.33546,0.37067 2.05149,1.66744 3.81341,2.88171 1.76193,1.21427 4.87382,3.22662 6.91532,4.47188 l 3.71182,2.2641 7.05555,0.44225 c 3.88056,0.24323 8.16681,0.61395 9.525,0.82381 1.3582,0.20986 2.9457,0.42479 3.52778,0.47763 0.58208,0.0528 1.29646,0.0802 1.5875,0.0608 0.29104,-0.0194 1.11938,-0.30127 1.84075,-0.62635 z m -26.96824,-1.73758 c -0.0765,-0.24254 -0.90265,-0.91722 -1.83592,-1.49931 -0.93327,-0.58208 -2.97377,-1.91274 -4.53445,-2.95702 -1.56068,-1.04429 -3.53803,-2.43335 -4.39412,-3.08681 -0.85608,-0.65346 -1.75787,-1.18811 -2.00397,-1.18811 -0.24611,0 -0.69013,0.27781 -0.98671,0.61736 -0.29659,0.33955 -0.72131,1.18519 -0.94383,1.8792 l -0.40458,1.26184 -1.24184,1.35577 -1.24183,1.35577 0.10622,0.55739 0.10621,0.55739 2.64213,0.4547 c 1.45317,0.25009 3.91213,0.58564 5.46435,0.74568 1.55222,0.16004 4.30389,0.31261 6.11481,0.33905 l 3.2926,0.0481 z m -39.82586,-0.94958 c 1.23795,-0.39936 2.6667,-0.727 3.175,-0.72808 0.5083,-0.001 1.5195,-0.1673 2.2471,-0.36936 l 1.32292,-0.36739 v -0.44516 c 0,-0.24484 -0.23308,-0.75332 -0.51795,-1.12995 l -0.51795,-0.68479 -0.0112,-0.98698 -0.0112,-0.98698 -0.93346,-0.8651 c -0.5134,-0.47581 -1.03818,-0.8651 -1.16618,-0.8651 -0.128,0 -0.71539,0.35719 -1.30532,0.79375 -0.58993,0.43656 -2.60514,2.24519 -4.47826,4.01918 -1.87312,1.77398 -3.40567,3.34391 -3.40567,3.48872 v 0.26329 l 1.6757,-0.20496 c 0.92163,-0.11273 2.68856,-0.53172 3.92651,-0.93109 z m 15.75955,-1.25528 c 0.88567,-0.87313 1.75971,-1.5875 1.94233,-1.5875 0.18262,0 0.33203,0.085 0.33203,0.1888 0,0.10384 -0.25963,0.58504 -0.57695,1.06934 -0.31733,0.4843 -0.48418,0.97332 -0.37079,1.08671 0.11339,0.11339 0.7199,0.0271 1.3478,-0.1918 0.62789,-0.21889 1.42222,-0.65191 1.76517,-0.96228 l 0.62354,-0.56429 -0.20376,-1.0188 -0.20376,-1.01879 h 0.37934 c 0.20864,0 0.52634,0.26265 0.70599,0.58367 l 0.32663,0.58366 0.57082,-0.21904 c 0.31395,-0.12047 0.88863,-0.74031 1.27707,-1.37742 l 0.70626,-1.15837 0.001,-1.47634 c 7.2e-4,-0.81199 -0.15713,-1.8931 -0.3508,-2.40248 l -0.35212,-0.92614 -0.32629,0.20166 c -0.17947,0.11092 -0.4305,0.6761 -0.55786,1.25595 -0.12736,0.57986 -0.37061,1.05429 -0.54056,1.05429 h -0.309 l 0.0725,-3.06389 0.0724,-3.06389 -1.19869,-0.81666 -1.1987,-0.81667 h -1.53533 -1.53533 v -0.50539 -0.5054 l -0.61736,-0.18927 c -0.33955,-0.1041 -1.23209,-0.0478 -1.98341,0.1252 -0.75133,0.17295 -1.53714,0.48555 -1.74625,0.69466 -0.20911,0.20911 -0.77375,0.3802 -1.25474,0.3802 h -0.87454 l -1.14751,1.2528 -1.14752,1.25279 -0.23016,1.04793 -0.23017,1.04792 0.23493,1.3905 0.23492,1.3905 -0.23662,0.38286 -0.23661,0.38285 -0.49776,-0.4131 -0.49776,-0.41311 v 0.90112 0.90112 l 1.05833,0.7536 1.05834,0.7536 v 0.52892 0.52891 l -0.70556,-0.22393 -0.70556,-0.22394 v 0.47445 c 0,0.26094 0.25243,0.83483 0.56095,1.27531 l 0.56095,0.80087 0.49739,-0.41279 0.49738,-0.41279 0.5114,0.42442 0.5114,0.42443 1.06734,-0.11196 1.06735,-0.11196 0.097,0.34809 0.0969,0.34809 -1.14653,0.33754 c -0.63059,0.18564 -1.14653,0.45023 -1.14653,0.58796 0,0.13773 0.43657,0.40987 0.97014,0.60475 0.53358,0.19488 1.40579,0.36686 1.93824,0.38218 l 0.96809,0.0279 z m -2.84092,-3.85474 -1.05833,-0.44705 -0.48552,-0.90775 -0.48552,-0.90776 0.23497,-1.25249 0.23497,-1.2525 0.86404,-1.02685 0.86404,-1.02685 0.96173,-0.18385 0.96172,-0.18384 1.31232,1.31232 1.31232,1.31231 0.23751,0.94633 0.23752,0.94633 -0.22024,0.87748 -0.22023,0.87748 -0.78815,0.49065 c -0.43348,0.26985 -1.2644,0.57669 -1.84648,0.68187 l -1.05834,0.19123 z m 3.01372,-0.91585 c 0.37085,-0.19847 0.84996,-0.68912 1.06468,-1.09034 l 0.39041,-0.72947 -0.41986,-1.01363 -0.41986,-1.01363 -1.21879,-0.7191 -1.21879,-0.71911 -0.68395,0.36604 c -0.37617,0.20132 -0.68395,0.53182 -0.68395,0.73444 v 0.36839 l 0.97014,-0.19922 0.97014,-0.19922 0.6407,0.88586 0.64071,0.88586 -0.11154,0.78464 -0.11154,0.78463 -1.11264,0.10802 -1.11263,0.10802 -0.56306,-0.80387 -0.56306,-0.80388 v 0.94291 0.94291 l 0.61737,0.35958 c 0.33954,0.19777 0.98498,0.36441 1.4343,0.37031 0.44932,0.006 1.12037,-0.15166 1.49122,-0.35014 z m -10.59844,-2.46136 c 0,-0.19402 -0.15875,-0.35277 -0.35278,-0.35277 -0.19403,0 -0.35278,0.15875 -0.35278,0.35277 0,0.19403 0.15875,0.35278 0.35278,0.35278 0.19403,0 0.35278,-0.15875 0.35278,-0.35278 z m 20.46111,-0.17638 c 0,-0.097 -0.0794,-0.17639 -0.17639,-0.17639 -0.097,0 -0.17639,0.0794 -0.17639,0.17639 0,0.097 0.0794,0.17638 0.17639,0.17638 0.097,0 0.17639,-0.0794 0.17639,-0.17638 z m -20.85044,-1.77618 c 0.60219,-0.68585 1.094,-1.43991 1.09291,-1.67569 -0.001,-0.23579 -0.16729,-1.02401 -0.36936,-1.75162 l -0.36739,-1.32291 -2.36467,-0.0109 c -1.30056,-0.006 -3.50501,-0.15905 -4.89877,-0.34014 -1.39375,-0.1811 -2.94157,-0.43153 -3.43958,-0.55652 l -0.90548,-0.22726 v 0.37116 c 0,0.20415 2.09407,1.80886 4.65348,3.56603 2.55942,1.75717 4.84485,3.19485 5.07874,3.19485 0.23388,0 0.91794,-0.56115 1.52012,-1.247 z m 25.95051,-2.16172 c 1.6576,-1.48674 3.01382,-2.83612 3.01382,-2.99861 v -0.29545 h -4.69195 -4.69194 l -0.42333,0.42333 c -0.23284,0.23284 -0.42334,0.79635 -0.42334,1.25225 0,0.45589 0.23496,1.28325 0.52212,1.83857 0.28717,0.55532 0.94357,1.34118 1.45869,1.74637 0.51511,0.40519 1.22581,0.7367 1.57934,0.7367 h 0.64277 z m -23.1623,-1.9535 c 0.23284,-0.23284 0.42334,-0.55034 0.42334,-0.70556 0,-0.15522 -0.39688,-0.28222 -0.88195,-0.28222 h -0.88194 v 0.47037 c 0,0.2587 0.10583,0.5762 0.23518,0.70555 0.12936,0.12936 0.33573,0.23519 0.45861,0.23519 0.12289,0 0.41393,-0.1905 0.64676,-0.42333 z m -3.37348,-2.13431 0.57136,-0.44097 -0.8092,-3.35139 c -0.44507,-1.84326 -0.99928,-4.25774 -1.23158,-5.3655 l -0.42238,-2.01412 -1.83,-1.49768 c -1.00649,-0.82373 -2.55037,-2.13988 -3.43082,-2.92478 -0.88046,-0.7849 -2.84598,-2.53834 -4.36784,-3.89653 -1.52185,-1.35819 -3.5796,-3.19432 -4.57278,-4.08029 -0.99318,-0.88596 -2.78446,-2.36721 -3.98063,-3.29166 l -2.17486,-1.68082 -0.77787,0.4163 -0.77788,0.41631 -1.00173,-0.74062 c -0.55096,-0.40733 -1.12723,-0.73442 -1.2806,-0.72685 -0.15338,0.008 -0.8345,0.75071 -1.51359,1.65142 -0.6791,0.90072 -2.22769,3.15672 -3.44132,5.01333 -1.21363,1.85661 -2.64238,4.22958 -3.175,5.27327 l -0.96841,1.89762 0.68282,0.39544 c 0.37556,0.21749 1.01056,0.72351 1.41112,1.12449 0.40056,0.40097 3.98266,2.86874 7.96023,5.48392 3.97757,2.61518 8.04562,5.26754 9.04011,5.89413 l 1.80817,1.13925 2.77794,0.56247 c 1.52787,0.30935 3.8892,0.67908 5.24739,0.82161 1.3582,0.14254 3.19317,0.28243 4.07771,0.31089 l 1.60827,0.0517 z m 7.13815,-0.77434 1.95034,-0.86253 v -0.72728 -0.72728 l -2.38126,-1.53726 c -1.30968,-0.84549 -3.33375,-2.28414 -4.49791,-3.19699 l -2.11667,-1.65974 -0.11947,0.98755 -0.11947,0.98754 0.79272,3.35829 c 0.43599,1.84706 0.94575,3.55673 1.1328,3.79926 l 0.34009,0.44098 h 1.53425 1.53424 z m 23.91732,0.18801 0.94513,-0.35933 2.59873,-2.47737 c 1.4293,-1.36256 4.02322,-3.63025 5.76428,-5.03932 1.74106,-1.40908 4.41933,-3.6732 5.95173,-5.0314 1.5324,-1.35819 4.15491,-3.78197 5.82781,-5.38617 l 3.04163,-2.91672 v -1.05955 -1.05954 l 0.98266,-1.02568 0.98266,-1.02568 -0.83268,-1.17166 c -0.45797,-0.64442 -1.58531,-2.00372 -2.5052,-3.02068 -0.91989,-1.01696 -2.47944,-2.95843 -3.46568,-4.31439 -0.98624,-1.35595 -2.59833,-3.1697 -3.58241,-4.03056 -0.98409,-0.86086 -2.31485,-1.84825 -2.95726,-2.1942 l -1.168,-0.62902 -1.45934,1.6579 c -0.80264,0.91184 -1.64971,1.6579 -1.88238,1.6579 -0.23267,0 -1.23488,0.83343 -2.22713,1.85208 -0.99225,1.01865 -2.87298,3.28083 -4.17938,5.02708 -1.30641,1.74625 -2.98543,4.04813 -3.73116,5.11528 -0.74573,1.06715 -1.83275,2.57528 -2.4156,3.35139 -0.58285,0.77611 -1.22248,1.78022 -1.4214,2.23136 -0.19892,0.45113 -0.98871,1.56386 -1.75507,2.47273 l -1.3934,1.65248 -0.3554,2.46616 c -0.19548,1.35639 -0.69475,4.90774 -1.10951,7.89189 l -0.75409,5.42573 0.47576,0.33073 0.47577,0.33072 4.6019,-0.18141 4.6019,-0.18141 z m -12.17055,-0.11922 0.35783,-0.44098 0.41536,-3.35139 c 0.22844,-1.84326 0.56311,-4.41367 0.7437,-5.71202 0.18059,-1.29834 0.32834,-2.60803 0.32834,-2.91041 0,-0.30238 -0.15238,-0.54979 -0.33864,-0.54979 -0.18625,0 -1.09906,0.81262 -2.02847,1.80582 -0.92941,0.9932 -2.47828,2.85851 -3.44194,4.14514 -0.96366,1.28662 -2.19324,2.81557 -2.7324,3.39765 -0.53915,0.58209 -0.98102,1.16659 -0.98191,1.2989 -9e-4,0.13231 0.46382,0.572 1.03272,0.97708 0.56889,0.40509 1.56108,0.96531 2.20486,1.24494 l 1.17051,0.50841 1.45611,0.0138 1.45611,0.0138 z m 22.65912,-0.96783 c 1.84327,-0.16071 4.46264,-0.46413 5.82084,-0.67428 1.35819,-0.21014 4.7073,-0.62117 7.44247,-0.91339 2.73517,-0.29222 5.75142,-0.53306 6.70278,-0.53519 0.95136,-0.002 2.31544,-0.10072 3.0313,-0.21908 l 1.30156,-0.2152 0.19643,-0.51189 0.19643,-0.51189 -0.38992,-1.65028 c -0.21446,-0.90765 -0.86792,-3.23778 -1.45213,-5.17806 l -1.06221,-3.52777 -1.23708,-2.29306 c -0.6804,-1.26118 -1.72338,-3.06834 -2.31776,-4.01591 l -1.08067,-1.72285 -0.19755,0.48813 c -0.10865,0.26847 -0.43417,0.84532 -0.72338,1.28188 l -0.52583,0.79375 h -0.64654 -0.64653 l -2.93508,2.73403 c -1.61429,1.50371 -4.04055,3.71875 -5.39169,4.9223 -1.35113,1.20355 -4.35289,3.75873 -6.67058,5.67816 -2.31768,1.91944 -4.80105,4.09438 -5.51858,4.83321 -0.71754,0.73882 -1.30461,1.49956 -1.30461,1.69054 v 0.34723 l 2.02847,-0.25409 c 1.11566,-0.13976 3.5366,-0.38559 5.37986,-0.54629 z m -60.32888,-0.97245 c -0.002,-0.14552 -0.97258,-0.89959 -2.15654,-1.6757 -1.18396,-0.77611 -4.31753,-2.79784 -6.96348,-4.49272 l -4.81082,-3.08162 -0.8569,-0.005 c -0.47129,-0.003 -1.40307,-0.20269 -2.07062,-0.44408 l -1.21372,-0.43888 -1.14508,1.32467 -1.14509,1.32467 -0.75304,1.96783 c -0.41418,1.0823 -0.75305,2.21034 -0.75305,2.50675 v 0.53892 l 0.69636,-0.1821 c 0.38299,-0.10016 1.34321,-0.0368 2.13382,0.14088 0.79061,0.17763 3.53319,0.56505 6.09462,0.86092 2.56143,0.29588 6.16527,0.82893 8.00853,1.18458 1.84327,0.35564 3.70858,0.66665 4.14514,0.69114 0.43656,0.0245 0.792,-0.0745 0.78987,-0.22007 z m 30.60827,-2.60387 c 0.7271,-0.80154 2.2745,-2.69402 3.43867,-4.20552 1.16416,-1.51149 2.94281,-3.71267 3.95255,-4.8915 l 1.83588,-2.14333 0.16611,-1.14768 c 0.0914,-0.63123 0.33677,-2.6955 0.54536,-4.58727 0.2086,-1.89177 0.54092,-4.90802 0.73851,-6.70278 0.19758,-1.79475 0.52899,-4.69194 0.73646,-6.43819 0.20747,-1.74625 0.46334,-4.40968 0.56859,-5.91874 l 0.19137,-2.74373 -0.6067,-0.6704 -0.6067,-0.6704 0.11984,-1.70114 0.11984,-1.70115 -2.11667,-0.44369 -2.11666,-0.44369 -4.51605,0.35279 -4.51604,0.35278 -0.70877,0.37933 -0.70878,0.37932 0.0993,3.41575 0.0993,3.41575 -0.50777,1.67569 c -0.27927,0.92163 -0.5967,1.6757 -0.70539,1.6757 -0.1087,0 -0.48883,-1.13041 -0.84474,-2.51202 -0.35591,-1.38161 -0.74826,-3.6438 -0.87189,-5.02708 l -0.22477,-2.51507 -1.97281,0.0373 -1.97281,0.0373 -2.09376,1.06397 c -1.15157,0.58519 -2.5721,1.16903 -3.15672,1.29744 -0.58462,0.1284 -1.58931,0.55356 -2.23265,0.9448 l -1.1697,0.71134 0.23291,1.55318 0.23291,1.55318 -0.51275,0.8105 -0.51275,0.81049 0.49459,1.76389 c 0.27203,0.97014 0.64419,2.55764 0.82704,3.52778 0.18284,0.97014 0.48011,2.47827 0.66059,3.35139 0.18048,0.87312 0.65872,2.78977 1.06276,4.25921 0.40404,1.46943 0.9124,3.13631 1.1297,3.70416 0.2173,0.56786 0.68621,2.38184 1.04204,4.03107 0.35582,1.64924 0.85127,3.85043 1.101,4.89153 l 0.45405,1.89291 2.04782,1.81125 c 1.12631,0.99619 3.51574,2.79635 5.30985,4.00034 1.79412,1.204 3.46087,2.19618 3.70391,2.20486 0.24304,0.009 1.03679,-0.64002 1.76389,-1.44156 z m -14.37667,-8.50863 c -4e-5,-0.0485 -0.22961,-1.28777 -0.51016,-2.7539 -0.28055,-1.46614 -0.73948,-3.37114 -1.01984,-4.23334 -0.28037,-0.86219 -0.77404,-2.52012 -1.09706,-3.68429 -0.32302,-1.16417 -0.80436,-2.91042 -1.06964,-3.88055 -0.26528,-0.97014 -0.7394,-3.03389 -1.05359,-4.58612 -0.31419,-1.55222 -0.75148,-3.45722 -0.97175,-4.23333 -0.22027,-0.77611 -0.59688,-1.64923 -0.83692,-1.94028 -0.24003,-0.29104 -0.58187,-1.08479 -0.75963,-1.76389 l -0.32321,-1.23472 -0.74151,0.0255 -0.74152,0.0255 -2.87171,1.73602 -2.87172,1.73603 -3.41376,3.4518 c -1.87756,1.89849 -3.46218,3.59266 -3.52137,3.76482 -0.0592,0.17216 0.19921,0.4104 0.57422,0.52943 0.37501,0.11902 1.13781,0.62153 1.69512,1.11669 0.5573,0.49516 1.87701,1.56218 2.93269,2.37117 1.05567,0.80898 2.25244,1.78838 2.65948,2.17644 0.40704,0.38805 2.31661,2.05493 4.24349,3.70416 1.92687,1.64924 4.65088,4.07018 6.05335,5.37986 l 2.54995,2.38125 h 0.54757 c 0.30117,0 0.54755,-0.0397 0.54752,-0.0882 z m 26.93693,-6.81763 c 0.55423,-0.76145 2.06235,-2.98355 3.35138,-4.93799 1.28903,-1.95445 3.28612,-4.81195 4.43798,-6.35 1.15186,-1.53806 2.86857,-3.66959 3.81492,-4.73674 l 1.72064,-1.94028 -0.20066,-1.02279 -0.20066,-1.02279 0.92437,-1.21191 0.92437,-1.21191 -0.3053,-0.29268 c -0.16792,-0.16097 -1.73405,-0.87102 -3.4803,-1.57789 -1.74625,-0.70686 -4.27126,-1.67192 -5.61113,-2.14457 l -2.43613,-0.85937 -0.46495,0.38588 c -0.25572,0.21223 -0.56923,0.96523 -0.69667,1.67334 -0.12745,0.70811 -0.40379,1.50346 -0.61408,1.76745 -0.21029,0.264 -0.41974,0.81962 -0.46543,1.23473 -0.0457,0.4151 -0.34223,2.73911 -0.65897,5.16445 -0.31674,2.42535 -0.7117,6.15598 -0.87768,8.29028 -0.16598,2.13431 -0.47044,4.73566 -0.67657,5.78079 -0.20613,1.04513 -0.37478,2.5268 -0.37478,3.29259 v 1.39236 l 0.44097,-0.14424 c 0.24254,-0.0793 0.89444,-0.76725 1.44868,-1.52871 z m 16.10202,-21.42575 v -0.35278 l -0.70556,0.63852 c -0.38805,0.35119 -0.70555,0.79727 -0.70555,0.9913 v 0.35277 l 0.70555,-0.63851 c 0.38806,-0.35119 0.70556,-0.79727 0.70556,-0.9913 z m -47.80139,110.17601 c -0.38806,-0.16675 -0.83399,-0.31434 -0.99096,-0.32798 l -0.2854,-0.0248 0.21802,0.35277 c 0.11992,0.19403 0.56585,0.34162 0.99096,0.32799 l 0.77293,-0.0248 z m -1.70509,-0.58796 -0.23519,-0.23518 -0.23519,0.23518 -0.23518,0.23519 h 0.47037 0.47037 z m -2.35186,-0.99237 c 0,-0.0931 -0.61518,-0.48306 -1.36708,-0.86665 -0.7519,-0.38359 -2.22033,-1.02173 -3.26319,-1.4181 -1.04287,-0.39637 -1.94517,-0.72075 -2.00513,-0.72085 -0.06,-1e-4 -0.001,0.17376 0.12987,0.38635 0.13139,0.21259 1.36659,0.92697 2.7449,1.5875 1.3783,0.66054 2.7883,1.20097 3.13332,1.20097 0.34502,0 0.62731,-0.0761 0.62731,-0.16922 z m 54.36178,-0.41191 c 0.6604,-0.31962 1.96222,-1.11845 2.89295,-1.77517 0.93072,-0.65673 2.33656,-1.78428 3.12409,-2.50568 0.78753,-0.72139 2.01041,-1.88148 2.7175,-2.57797 0.7071,-0.69649 2.23813,-2.34086 3.4023,-3.65417 1.16416,-1.3133 2.51354,-2.91766 2.99861,-3.56523 0.48507,-0.64758 1.76218,-2.33695 2.83804,-3.75417 1.07585,-1.41721 2.21787,-3.13238 2.53782,-3.81148 0.31995,-0.67909 1.22565,-2.86513 2.01266,-4.85785 0.787,-1.99272 1.43092,-3.86361 1.43092,-4.15755 0,-0.29393 0.22823,-0.88602 0.50717,-1.31576 0.27895,-0.42973 0.81891,-1.89259 1.19991,-3.25078 0.38101,-1.35819 1.10644,-3.89819 1.61206,-5.64444 0.50563,-1.74625 1.16956,-4.7625 1.47541,-6.70278 0.30584,-1.94028 0.63956,-4.04372 0.74158,-4.67431 l 0.18551,-1.14652 h -0.35827 -0.35827 l -0.25199,1.83217 c -0.1386,1.0077 -0.55037,2.69943 -0.91505,3.7594 l -0.66306,1.92721 v 1.49711 1.49711 l -1.5875,4.7755 c -0.87312,2.62653 -1.5875,4.99544 -1.5875,5.26425 0,0.2688 -0.71915,1.96632 -1.59812,3.77225 -0.87897,1.80594 -2.53076,4.66836 -3.67065,6.36094 -1.13988,1.69258 -2.38258,3.69597 -2.76154,4.45198 -0.37896,0.75602 -0.78688,1.78302 -0.9065,2.28223 l -0.21749,0.90765 -2.16663,2.44374 c -1.19165,1.34405 -2.56444,2.96038 -3.05064,3.59183 -0.4862,0.63145 -1.69806,1.73851 -2.69302,2.46013 -0.99496,0.72162 -2.68214,2.12826 -3.7493,3.12588 -1.06715,0.99761 -2.61496,2.2341 -3.43958,2.74776 -0.82462,0.51366 -1.49931,1.01131 -1.49931,1.10589 0,0.0946 0.13436,0.17196 0.29858,0.17196 0.16422,0 0.83891,-0.26151 1.49931,-0.58113 z m -65.70089,-6.23628 c -0.89751,-0.81008 -3.0138,-2.34599 -4.70288,-3.41314 -1.68909,-1.06715 -3.53313,-2.21487 -4.09787,-2.55047 -0.56474,-0.33561 -1.0268,-0.49324 -1.0268,-0.35029 0,0.14295 0.91281,1.02405 2.02847,1.958 1.11566,0.93395 3.60234,2.71916 5.52597,3.96714 1.92362,1.24798 3.58916,2.17738 3.70121,2.06534 0.11204,-0.11205 -0.5306,-0.86651 -1.4281,-1.67658 z m -11.4741,-8.39158 c -0.54961,-0.63645 -1.56175,-1.80073 -2.2492,-2.58729 -0.68746,-0.78656 -1.89704,-2.22385 -2.68796,-3.19399 -0.79092,-0.97014 -2.11758,-2.87514 -2.94813,-4.23334 -0.83055,-1.35819 -2.17794,-3.89819 -2.99421,-5.64444 -0.81627,-1.74625 -1.99337,-4.84188 -2.61578,-6.87917 -0.6224,-2.03729 -1.26776,-4.02166 -1.43413,-4.40972 -0.16637,-0.38805 -0.40194,-1.16085 -0.52349,-1.71732 -0.12155,-0.55647 -0.28662,-0.94615 -0.36681,-0.86595 -0.0802,0.0802 0.17656,1.72611 0.57058,3.65759 0.39402,1.93149 1.01468,4.62304 1.37924,5.98124 l 0.66285,2.46944 2.75249,5.46007 2.75249,5.46006 2.82222,2.97144 c 1.55222,1.6343 3.44288,3.42494 4.20147,3.97921 0.75859,0.55427 1.44639,0.94062 1.52845,0.85856 0.0821,-0.0821 -0.30048,-0.66993 -0.85008,-1.30639 z m -15.96903,-33.58419 -0.32276,-1.47765 0.31179,-4.7625 c 0.17149,-2.61937 0.40589,-5.715 0.5209,-6.87916 l 0.20911,-2.11667 -0.51786,0.89195 c -0.28483,0.49057 -0.69024,1.84252 -0.90092,3.00435 -0.21067,1.16182 -0.44027,3.22107 -0.51021,4.57611 -0.0699,1.35503 0.003,3.64073 0.16167,5.07932 0.15885,1.4386 0.39649,3.10547 0.52809,3.70417 l 0.23927,1.08854 0.30183,-0.8154 0.30184,-0.8154 z m 123.09613,-7.67208 c 0,-0.18258 -0.15875,-0.33196 -0.35277,-0.33196 -0.19403,0 -0.35278,0.2475 -0.35278,0.54999 v 0.54999 l 0.35278,-0.21803 c 0.19402,-0.11992 0.35277,-0.36741 0.35277,-0.54999 z m 0.35278,-3.19582 v -1.05833 l -0.35278,0.21803 -0.35277,0.21803 v 1.05833 1.05833 l 0.35277,-0.21803 0.35278,-0.21803 z m -0.1452,-4.45449 c -0.11417,-0.11416 -0.30656,-0.10859 -0.42755,0.0124 l -0.21997,0.21997 0.27457,0.63257 0.27456,0.63258 0.15298,-0.64497 c 0.0841,-0.35474 0.0596,-0.73838 -0.0546,-0.85255 z m -0.42739,-5.59561 -0.14836,-3.03619 -0.34508,-0.64479 c -0.18979,-0.35463 -0.34508,-1.1221 -0.34508,-1.70549 v -1.0607 l -0.35278,-0.21803 -0.35278,-0.21803 v -1.24878 c 0,-0.68683 -0.22417,-1.74903 -0.49816,-2.36043 -0.27398,-0.61141 -0.59476,-1.66728 -0.71283,-2.34637 -0.11807,-0.6791 -0.96642,-2.74328 -1.88523,-4.58707 -0.91881,-1.84379 -2.46334,-4.44707 -3.43231,-5.78508 -0.96896,-1.33801 -2.47612,-3.26081 -3.34924,-4.27289 -0.87313,-1.01209 -2.36052,-2.81867 -3.30532,-4.01463 -0.9448,-1.19597 -2.02838,-2.34069 -2.40795,-2.54383 l -0.69014,-0.36935 0.43897,0.82021 c 0.24143,0.45112 1.65277,2.09032 3.13631,3.64268 l 2.69735,2.82246 1.93329,2.99861 c 1.06331,1.64923 2.6896,4.56661 3.61397,6.48305 0.92438,1.91644 1.90048,4.05956 2.16913,4.7625 0.26865,0.70293 0.80067,2.54806 1.18226,4.10028 0.3816,1.55222 0.87799,3.77472 1.10309,4.93889 0.22511,1.16417 0.55685,2.69071 0.73721,3.39232 0.18037,0.70161 0.32794,1.77317 0.32794,2.38125 v 1.1056 h 0.31705 0.31705 z m -118.86883,-5.1659 c 0.44934,-1.01864 0.93655,-2.40771 1.0827,-3.0868 0.14615,-0.6791 0.73995,-2.18722 1.31956,-3.35139 0.57961,-1.16417 1.62635,-3.06917 2.32607,-4.23333 0.69973,-1.16417 2.2177,-3.38667 3.37327,-4.93889 1.15558,-1.55223 3.2423,-4.25215 4.63718,-5.99983 l 2.53613,-3.17761 0.93048,-0.49798 c 0.51176,-0.27389 0.93048,-0.61638 0.93048,-0.76109 0,-0.14472 0.83343,-0.86908 1.85208,-1.6097 1.01864,-0.74061 2.68704,-2.02034 3.70754,-2.84383 1.0205,-0.82349 2.36987,-2.08338 2.99861,-2.79975 l 1.14315,-1.30248 -0.70555,0.37841 c -0.38806,0.20812 -2.45181,1.67752 -4.58611,3.26532 l -3.88056,2.8869 -4.49791,4.43041 c -2.47386,2.43673 -4.49792,4.5495 -4.49792,4.69506 0,0.14555 -0.88825,1.41427 -1.97389,2.81938 -1.08564,1.4051 -2.67388,3.64678 -3.52942,4.98151 l -1.55553,2.42678 -1.0506,3.25702 c -0.57783,1.79137 -1.18806,4.16984 -1.35607,5.2855 -0.168,1.11566 -0.24138,2.02848 -0.16306,2.02848 0.0783,0 0.51003,-0.83344 0.95937,-1.85209 z m 27.7192,-35.01319 c 0,-0.097 -0.0794,-0.17639 -0.17639,-0.17639 -0.097,0 -0.17639,0.0794 -0.17639,0.17639 0,0.097 0.0794,0.17639 0.17639,0.17639 0.097,0 0.17639,-0.0794 0.17639,-0.17639 z m 6.71379,-3.53331 c 1.74455,-0.87617 3.92419,-1.84572 4.84365,-2.15456 0.91945,-0.30884 2.30672,-0.84725 3.08284,-1.19646 0.77611,-0.3492 2.36361,-0.98091 3.52777,-1.40379 1.16417,-0.42288 2.63408,-0.85203 3.26647,-0.95366 0.63239,-0.10163 1.23707,-0.326 1.34373,-0.49859 l 0.19394,-0.3138 h -0.70977 c -0.39038,0 -1.07444,0.14836 -1.52013,0.32968 -0.44569,0.18133 -2.6162,0.90192 -4.82335,1.60132 -2.20716,0.69939 -5.06466,1.75691 -6.35,2.35003 -1.28535,0.59313 -3.01326,1.40959 -3.8398,1.81436 -0.82654,0.40477 -1.76395,1.02452 -2.08314,1.37722 -0.3192,0.35271 -0.4732,0.64128 -0.34224,0.64128 0.13096,0 1.66548,-0.71686 3.41003,-1.59303 z m 22.0376,-6.87363 0.21803,-0.35278 h -1.23472 -1.23473 l -0.21802,0.35278 -0.21803,0.35277 h 1.23472 1.23472 z m -60.95857,18.8952 c -0.26727,-0.26727 -0.97864,-1.73084 -1.58082,-3.25238 -0.60218,-1.52154 -1.83312,-4.67144 -2.73542,-6.99977 -0.90231,-2.32833 -2.19779,-5.58271 -2.87886,-7.23194 -0.68107,-1.64924 -1.38027,-3.31611 -1.55379,-3.70417 -0.17351,-0.38806 -0.96887,-2.45181 -1.76746,-4.58611 -0.79859,-2.13431 -2.37104,-6.49993 -3.49433,-9.70139 -1.12329,-3.201463 -2.51986,-7.090833 -3.10349,-8.643063 -0.58363,-1.552217 -1.56239,-3.933467 -2.17502,-5.291662 -0.61264,-1.358194 -1.42184,-3.144295 -1.79824,-3.969113 -0.37639,-0.824818 -0.77417,-2.064885 -0.88396,-2.755705 l -0.19962,-1.256036 0.32934,-0.419295 c 0.18114,-0.230612 0.43491,-0.860944 0.56393,-1.400737 0.12903,-0.539793 0.94871,-2.095543 1.82153,-3.457222 0.87281,-1.361678 2.25757,-3.204472 3.07724,-4.095096 0.81968,-0.890624 2.68094,-2.526264 4.13615,-3.634756 1.45521,-1.108491 3.32075,-2.35958 4.14565,-2.780197 0.8249,-0.420617 2.49177,-1.025967 3.70417,-1.345223 l 2.20435,-0.580464 3.52777,-0.0051 3.52778,-0.0051 1.99204,0.954183 1.99204,0.954183 1.48115,1.91985 1.48116,1.91985 1.02171,2.510651 c 0.56195,1.380859 1.16127,3.410341 1.33183,4.509961 0.17056,1.09962 0.25814,2.634309 0.19462,3.410421 -0.0635,0.776111 -0.20855,1.966736 -0.3223,2.645833 -0.11374,0.679097 -0.45945,2.028472 -0.76824,2.998611 -0.30879,0.970139 -0.88577,2.398889 -1.28219,3.175 -0.39641,0.776111 -1.62742,2.601736 -2.73558,4.056944 -1.10816,1.455208 -2.46902,3.059673 -3.02414,3.565483 -0.55513,0.5058 -1.91114,1.57425 -3.01337,2.37433 -1.10222,0.80008 -2.65664,1.7158 -3.45425,2.03494 l -1.45021,0.580259 0.122,0.36601 c 0.0671,0.2013 1.30401,1.00052 2.7487,1.77605 1.44468,0.77552 3.72697,2.13875 5.07174,3.0294 1.34477,0.89065 3.32915,2.21792 4.40972,2.9495 1.08058,0.73158 3.31406,2.04286 4.96329,2.91398 1.64924,0.87111 3.38761,1.88472 3.86305,2.25247 l 0.86443,0.66863 -1.83949,3.73753 -1.83948,3.73753 h -0.51804 c -0.28492,0 -1.5388,-0.62478 -2.7864,-1.38839 -1.24759,-0.76361 -3.35383,-2.13927 -4.68052,-3.05701 -1.32668,-0.91774 -3.75724,-2.7139 -5.40123,-3.99147 -1.64399,-1.27757 -3.8268,-2.91323 -4.85069,-3.6348 l -1.86163,-1.31194 v 0.39181 c 0,0.2155 0.69821,2.15525 1.55158,4.31055 0.85337,2.15531 2.45133,5.9825 3.55102,8.50486 1.0997,2.52236 2.37205,5.45923 2.82745,6.52639 0.4554,1.06715 1.02993,2.62909 1.27673,3.47098 l 0.44872,1.53071 -0.41803,0.66937 c -0.22991,0.36815 -0.41802,0.89206 -0.41802,1.16423 0,0.27218 -0.27781,0.82333 -0.61736,1.22477 l -0.61736,0.7299 -1.83771,0.70948 -1.8377,0.70948 z m 3.72037,-4.27642 0.97014,-0.23138 v -0.61467 c 0,-0.33807 -0.17912,-1.1543 -0.39805,-1.81384 -0.21892,-0.65955 -1.98427,-4.9298 -3.923,-9.48945 -1.93872,-4.55965 -4.45835,-10.41587 -5.59917,-13.01382 -1.14082,-2.59794 -2.07422,-4.94588 -2.07422,-5.21763 0,-0.27174 -0.63769,-1.08303 -1.41708,-1.80284 l -1.41707,-1.308773 0.30834,-1.64973 0.30835,-1.64973 -1.74554,-4.876659 c -0.96004,-2.68216 -2.13186,-5.922021 -2.60403,-7.199692 -0.47218,-1.27767 -1.40619,-3.18267 -2.07559,-4.233333 l -1.2171,-1.910295 -0.009,-0.724547 -0.009,-0.724547 1.14653,-1.09191 c 0.63059,-0.60055 2.1784,-1.916327 3.43958,-2.923949 1.26118,-1.007622 3.00743,-2.19625 3.88056,-2.641396 0.87312,-0.445145 2.71586,-1.144885 4.09497,-1.554976 1.37912,-0.41009 3.10406,-0.745619 3.83321,-0.745619 h 1.32573 l 1.74378,0.617361 c 0.95908,0.339548 2.48851,1.172986 3.39874,1.852083 l 1.65495,1.234722 1.33675,2.645833 1.33675,2.645834 -0.17671,1.449955 c -0.0972,0.797475 -0.51496,2.354033 -0.92839,3.459018 l -0.75169,2.009062 -1.30836,1.303482 c -0.71959,0.716915 -2.41148,2.300803 -3.75974,3.519751 l -2.45138,2.216269 -4.34572,2.714763 -4.34572,2.71476 0.2298,1.24258 c 0.12639,0.68342 0.46655,1.74522 0.75591,2.359553 l 0.52612,1.11696 1.29675,0.87673 c 0.71321,0.48221 1.61425,1.13072 2.0023,1.44114 0.38806,0.31043 3.00743,2.09526 5.82083,3.9663 l 5.11528,3.40188 2.99861,1.41744 2.99861,1.41744 1.66059,1.53021 c 0.91331,0.84162 1.89992,1.53021 2.19244,1.53021 h 0.53187 l 0.39236,-0.73312 0.39235,-0.73313 -0.18138,-0.47267 c -0.0998,-0.25997 -1.3423,-1.14649 -2.76119,-1.97003 -1.4189,-0.82355 -4.80231,-2.96715 -7.5187,-4.76356 -2.71639,-1.7964 -6.52639,-4.05602 -8.46667,-5.02137 -1.94028,-0.96536 -4.12309,-2.00167 -4.85069,-2.30293 -0.72761,-0.30126 -1.32292,-0.68912 -1.32292,-0.861923 0,-0.17279 0.97708,-1.0937 2.1713,-2.04647 1.19421,-0.95276 2.67772,-2.12918 3.2967,-2.61425 0.61897,-0.48506 3.0947,-2.357659 5.50162,-4.161315 l 4.37621,-3.279376 1.67633,-1.953403 c 0.92198,-1.074371 1.75767,-2.297402 1.85708,-2.717846 0.0994,-0.420444 0.31412,-1.504377 0.47712,-2.408739 0.16301,-0.904362 0.25988,-2.510495 0.21529,-3.569184 l -0.0811,-1.924888 -0.61618,-1.898872 c -0.3389,-1.044379 -1.10114,-2.822944 -1.69388,-3.952366 l -1.0777,-2.053495 -1.5204,-1.338306 -1.52039,-1.338305 -2.05624,-0.57695 c -1.13092,-0.317322 -2.71435,-0.576949 -3.51873,-0.576949 -0.80437,0 -2.82256,0.317124 -4.48485,0.70472 l -3.02235,0.70472 -1.83152,0.928101 c -1.00734,0.510455 -2.46679,1.423643 -3.24324,2.029307 -0.77645,0.605664 -2.37758,2.05386 -3.55807,3.218215 l -2.14635,2.117007 -1.32048,2.253057 -1.32048,2.253058 0.22988,1.046618 c 0.12643,0.57564 0.82414,2.419111 1.55047,4.096602 0.72633,1.67749 2.20206,5.351858 3.27941,8.165261 1.07734,2.813398 2.63417,6.861528 3.45962,8.995828 0.82545,2.134313 2.09174,5.468063 2.81399,7.408343 0.72224,1.94028 1.89488,4.95653 2.60586,6.70278 0.71098,1.74625 1.42918,3.4925 1.596,3.88055 0.16682,0.38806 0.47382,1.18181 0.68222,1.76389 0.20841,0.58208 0.77234,2.40771 1.25317,4.05694 0.48084,1.64924 1.43158,4.47248 2.11277,6.27388 0.68118,1.80139 1.33726,3.43504 1.45796,3.63032 l 0.21943,0.35506 0.58768,-0.17399 c 0.32322,-0.0957 1.02423,-0.27811 1.55781,-0.40537 z m -7.78258,-40.701799 c 1.61254,-0.956275 3.27486,-2.027238 3.69404,-2.379918 0.41918,-0.35268 2.16543,-1.886217 3.88056,-3.40786 l 3.1184,-2.766623 0.81337,-1.5802 0.81336,-1.580199 0.205,-1.730843 0.20499,-1.730843 -2.17379,-2.094289 -2.17379,-2.09429 -1.64144,-0.559295 -1.64144,-0.559294 -1.78924,0.01548 -1.78924,0.01548 -1.23472,0.453979 c -0.6791,0.249689 -2.5841,1.343916 -4.23334,2.431616 -1.64923,1.0877 -3.75892,2.503629 -4.6882,3.146508 l -1.68958,1.168872 0.1591,0.705556 c 0.0875,0.388055 0.63599,1.89618 1.21885,3.351388 0.58287,1.455209 1.62166,4.153959 2.30843,5.997222 0.68676,1.843264 1.41691,3.80456 1.62256,4.35844 l 0.37389,1.00705 0.85517,-0.21463 c 0.47034,-0.11805 2.17452,-0.99704 3.78706,-1.953316 z m 126.40411,35.182409 c -1.16417,-0.15349 -2.61474,-0.33512 -3.2235,-0.40362 l -1.10684,-0.12454 -1.08974,-0.77596 -1.08974,-0.77597 -0.54671,-1.83396 c -0.30069,-1.00867 -0.72533,-2.91022 -0.94365,-4.22566 l -0.39695,-2.3917 0.60403,-3.42913 c 0.33222,-1.88602 0.81786,-4.30226 1.0792,-5.36941 0.26134,-1.06715 0.5743,-2.77094 0.69545,-3.78619 0.12116,-1.01526 0.86455,-4.58713 1.65199,-7.937503 0.78744,-3.35037 1.65393,-7.310429 1.92552,-8.800124 0.27159,-1.489695 0.90137,-3.79157 1.39949,-5.115277 0.49813,-1.323708 1.75106,-4.787992 2.78428,-7.698408 1.03323,-2.910417 2.05204,-5.728229 2.26402,-6.261805 l 0.38541,-0.970139 h 0.66277 0.66278 l 0.91984,-0.852479 0.91984,-0.852479 0.63098,0.125675 c 0.34703,0.06912 1.06754,0.217636 1.60111,0.330033 l 0.97014,0.204359 v 0.727772 c 0,0.400274 -0.38789,1.865687 -0.86199,3.256473 -0.47409,1.390786 -1.43715,5.227451 -2.14012,8.525923 -0.70297,3.298472 -1.97049,8.775347 -2.81671,12.170833 -0.84622,3.395483 -2.07959,8.237363 -2.74082,10.759726 -0.66123,2.52236 -1.62485,6.80861 -2.14136,9.525 l -0.93913,4.93889 0.30548,1.2813 c 0.16801,0.70472 0.41516,1.45879 0.54922,1.6757 0.13405,0.21691 0.51218,0.39012 0.84028,0.3849 0.3281,-0.005 1.09889,-0.44179 1.71288,-0.97014 0.61399,-0.52836 1.93392,-1.9582 2.9332,-3.17743 l 1.81685,-2.21678 2.65324,-4.96816 c 1.45928,-2.73249 2.8769,-5.60211 3.15028,-6.37693 0.27337,-0.77483 1.03441,-2.30411 1.69119,-3.398403 0.65679,-1.09429 1.74513,-3.41837 2.41855,-5.16462 0.67342,-1.746247 1.3238,-3.456029 1.4453,-3.799513 l 0.2209,-0.624515 1.06666,-0.213332 c 0.58666,-0.117332 1.06666,-0.352238 1.06666,-0.522012 v -0.308681 h 1.28199 c 0.70509,0 1.89571,0.183878 2.64583,0.408618 l 1.36384,0.408618 v 0.490553 c 0,0.269804 -0.81424,2.903739 -1.80942,5.853184 l -1.80943,5.362643 -1.88093,3.88055 c -1.03452,2.13431 -2.51837,4.9592 -3.29744,6.27754 -0.77908,1.31834 -1.99751,3.30272 -2.70764,4.40972 -0.71012,1.10701 -1.84234,2.84306 -2.51604,3.85789 -0.67369,1.01483 -2.51741,3.17055 -4.09714,4.79049 l -2.87223,2.94534 -1.5875,0.51611 -1.5875,0.5161 z m 5.14786,-2.24068 1.50076,-1.03788 2.32013,-2.78689 c 1.27608,-1.53279 3.14252,-4.07279 4.14765,-5.64444 1.00513,-1.57166 2.78462,-4.5291 3.95442,-6.5721 1.1698,-2.043 2.82539,-5.29737 3.6791,-7.23194 0.85371,-1.93458 2.15989,-5.474053 2.90261,-7.865493 l 1.3504,-4.348082 -0.50702,-0.320822 c -0.27886,-0.176452 -0.9039,-0.322657 -1.38897,-0.324901 l -0.88194,-0.0041 -0.61736,1.50169 -0.61736,1.50169 v 1.601435 1.60143 l -0.31016,0.33514 c -0.17059,0.18432 -0.50783,0.97014 -0.74941,1.74625 -0.24159,0.77611 -1.14132,2.601733 -1.9994,4.056943 -0.85808,1.45521 -2.4157,3.75709 -3.46138,5.11528 -1.04568,1.35819 -2.49419,3.42194 -3.21892,4.58611 -0.72472,1.16417 -2.26759,3.44545 -3.42859,5.06952 l -2.11092,2.95286 -1.55998,0.98931 -1.55998,0.98931 -1.29577,-0.19309 -1.29577,-0.19309 -0.66657,-0.63309 -0.66658,-0.63309 -0.24733,-2.58682 -0.24733,-2.58682 0.44575,-1.5875 c 0.24516,-0.87312 0.70213,-2.93687 1.01548,-4.58611 0.31335,-1.64924 0.82005,-4.03049 1.126,-5.29167 0.30595,-1.26118 0.99959,-3.880553 1.54142,-5.820833 0.54183,-1.94028 1.71424,-6.55599 2.60535,-10.257139 0.89111,-3.701149 1.6202,-7.081649 1.6202,-7.512221 0,-0.430572 0.2492,-1.847359 0.55377,-3.148416 0.30457,-1.301056 0.93957,-3.590327 1.41111,-5.08727 0.47154,-1.496942 0.85734,-2.96538 0.85734,-3.263194 v -0.541481 h -0.83431 -0.83431 l -1.08037,2.557639 c -0.59421,1.406701 -1.46976,3.589513 -1.94569,4.850694 -0.47592,1.261181 -1.27873,3.64243 -1.78403,5.291667 -0.5053,1.649236 -1.2977,4.347985 -1.7609,5.997222 -0.4632,1.649236 -1.34866,5.221111 -1.9677,7.937499 -0.61904,2.71639 -1.50679,6.367643 -1.97279,8.113893 -0.466,1.74625 -1.01865,4.445 -1.2281,5.99722 -0.20946,1.55222 -0.54701,4.25097 -0.75012,5.99722 l -0.36928,3.175 0.1658,2.85586 0.16581,2.85585 0.59636,1.25674 0.59636,1.25674 0.94538,0.36553 c 0.51997,0.20105 1.26289,0.44359 1.65095,0.53898 0.38805,0.0954 1.60553,0.13478 2.7055,0.0875 l 1.99994,-0.0859 z m -21.65816,-5.82906 c -0.73747,-0.12038 -1.50944,-0.38745 -1.71549,-0.5935 -0.20605,-0.20606 -0.52367,-1.14255 -0.70582,-2.08109 l -0.33118,-1.70645 0.009,-9.9509 0.009,-9.950893 -0.43168,-0.27947 c -0.23742,-0.15371 -1.46356,-0.45709 -2.72474,-0.67417 l -2.29305,-0.39469 -0.44097,0.3495 c -0.24254,0.19223 -0.44098,0.48032 -0.44098,0.64019 0,0.15987 -0.58277,1.29137 -1.29505,2.51444 -0.71227,1.22307 -2.34517,3.811263 -3.62867,5.751543 -1.28349,1.94028 -2.61317,4.12309 -2.95483,4.8507 l -0.62122,1.32291 -0.42442,0.0374 c -0.23343,0.0206 -0.84695,0.0101 -1.36338,-0.0233 l -0.93897,-0.0607 -0.24308,0.76587 -0.24307,0.76586 -1.05099,-0.21019 c -0.57804,-0.11561 -1.6113,-0.47609 -2.29614,-0.80107 l -1.24516,-0.59086 0.17413,-1.26441 0.17412,-1.2644 2.1116,-3.90658 c 1.16138,-2.14862 2.76519,-5.436343 3.56401,-7.306053 0.79883,-1.86971 2.00325,-4.260553 2.67648,-5.312991 0.67324,-1.052438 2.0357,-3.625849 3.02769,-5.718691 0.99199,-2.092842 2.25561,-4.462115 2.80804,-5.265051 l 1.00443,-1.459883 0.6012,-2.095932 c 0.33067,-1.152763 1.15921,-3.51685 1.84122,-5.253527 0.682,-1.736678 1.94426,-4.348805 2.80503,-5.804727 0.86076,-1.455922 1.77847,-3.157969 2.03934,-3.782326 l 0.47432,-1.135195 0.9996,-0.639949 c 0.54978,-0.351972 1.17489,-0.866094 1.38913,-1.142493 l 0.38951,-0.502543 3.66743,1.15695 c 2.01708,0.636323 3.88318,1.219134 4.14687,1.295135 l 0.47945,0.138184 -0.20867,5.392745 -0.20867,5.392744 -0.53883,2.840446 c -0.29635,1.562245 -0.61734,4.412286 -0.7133,6.333423 -0.096,1.921138 -0.26247,4.048603 -0.37,4.7277 -0.10753,0.679098 -0.33532,3.139723 -0.5062,5.468056 -0.17088,2.328333 -0.47926,8.995835 -0.6853,14.816668 -0.20604,5.82083 -0.46393,11.40638 -0.57308,12.41233 l -0.19846,1.82899 -1.12402,0.25593 c -0.61822,0.14076 -1.44153,0.27332 -1.82959,0.29457 -0.38805,0.0212 -1.30894,-0.0598 -2.04641,-0.18022 z m 3.98344,-3.76368 c -0.002,-1.11566 0.15891,-5.20347 0.3571,-9.08403 0.19819,-3.88056 0.67988,-11.659313 1.07041,-17.286114 l 0.71006,-10.230555 0.70011,-4.586111 c 0.38506,-2.522361 0.80013,-6.572335 0.92238,-8.999942 l 0.22228,-4.413831 -0.49024,-0.376414 c -0.26963,-0.207028 -1.70685,-0.721117 -3.19382,-1.142419 -1.48696,-0.421303 -2.79665,-0.766005 -2.91041,-0.766005 -0.11376,0 -0.20684,0.175521 -0.20684,0.390047 0,0.214526 -0.39056,0.854199 -0.86791,1.421496 l -0.86791,1.031449 -0.24464,1.304054 c -0.13455,0.717229 -0.81164,2.577869 -1.50465,4.134754 -0.693,1.556885 -2.48512,5.257773 -3.98248,8.224195 -1.49736,2.966422 -3.05995,6.295471 -3.47241,7.397886 -0.41247,1.102416 -1.30466,3.199718 -1.98264,4.660672 -0.67799,1.460954 -1.96056,4.08503 -2.85017,5.831275 -0.88961,1.74625 -2.32431,4.52438 -3.18823,6.17362 -0.86391,1.649233 -2.11041,3.966253 -2.76999,5.148923 l -1.19924,2.15031 0.64037,0.57953 c 0.3522,0.31874 1.1062,0.67212 1.67555,0.7853 l 1.03518,0.20579 0.67561,-1.17173 c 0.37159,-0.64446 1.97218,-3.15611 3.55686,-5.58146 1.58469,-2.425343 3.52018,-5.760533 4.3011,-7.411523 0.78091,-1.650987 1.67449,-3.213139 1.98573,-3.471446 l 0.5659,-0.469649 1.16018,0.352514 c 0.6381,0.193882 1.92731,0.445101 2.86492,0.558263 0.93761,0.113163 2.22653,0.453356 2.86427,0.755985 l 1.15954,0.550234 -0.14975,11.786512 -0.14975,11.78651 0.37151,0.69417 0.3715,0.69416 0.79452,0.15298 c 0.43699,0.0841 1.07234,0.1746 1.41189,0.20103 l 0.61736,0.048 z m -87.43728,0.12419 c -0.16729,-0.21383 -0.41586,-1.2619 -0.55237,-2.32905 -0.13651,-1.06716 -0.29483,-4.79778 -0.35182,-8.29028 -0.057,-3.4925 -0.2134,-9.604383 -0.34757,-13.581948 -0.13417,-3.977569 -0.38589,-10.883194 -0.55937,-15.345833 -0.17349,-4.462639 -0.50737,-9.551882 -0.74196,-11.30943 l -0.42653,-3.195541 0.94682,-1.615629 0.94682,-1.615628 3.18841,-1.149687 3.18841,-1.149688 0.4958,0.4958 c 0.27269,0.27269 1.06994,1.923201 1.77166,3.667802 0.70172,1.744601 1.75039,4.442001 2.33037,5.994223 0.57998,1.552223 1.98632,5.600348 3.12519,8.995834 1.13887,3.395486 2.95354,8.461048 4.0326,11.256804 1.07906,2.795756 2.10126,5.256381 2.27155,5.468055 0.1703,0.211674 0.73514,1.496113 1.25522,2.854303 0.52007,1.3582 1.73132,4.2157 2.69166,6.350003 0.96034,2.13431 1.74335,4.149 1.74002,4.4771 -0.003,0.3281 -0.1648,0.69465 -0.35883,0.81457 l -0.35277,0.21803 v 0.98284 0.98283 l -0.61736,0.54038 c -0.33955,0.2972 -1.39372,0.87836 -2.3426,1.29147 l -1.72524,0.75111 -0.4434,-0.36799 c -0.24387,-0.2024 -1.03453,-1.74399 -1.75701,-3.42576 -0.72248,-1.68177 -2.00878,-4.31455 -2.85844,-5.85063 -0.84966,-1.53607 -1.54484,-2.849873 -1.54484,-2.919543 0,-0.0697 -0.65166,-1.51879 -1.44813,-3.22027 -0.79647,-1.70147 -1.61955,-3.200453 -1.82907,-3.331076 l -0.38095,-0.237494 -1.6987,0.8608 -1.69871,0.8608 v 9.709503 9.7095 l -0.71272,1.39705 c -0.392,0.76839 -0.82856,1.42018 -0.97014,1.44843 -0.14158,0.0282 -1.09091,0.0841 -2.10962,0.12419 l -1.85221,0.0728 z m 4.78219,-13.79433 c 0.0374,-5.626813 0.0771,-10.577181 0.0882,-11.00083 l 0.0201,-0.77027 3.00032,-1.458902 3.00032,-1.458903 0.78882,0.112506 0.78882,0.112507 2.70265,5.997219 c 1.48646,3.29847 3.0754,6.847073 3.531,7.885783 0.45559,1.0387 1.22522,2.70558 1.71029,3.70416 l 0.88195,1.81562 0.70555,-0.12004 c 0.38806,-0.066 0.96904,-0.35546 1.29107,-0.64321 l 0.58551,-0.52318 -1.2496,-2.70817 c -0.68728,-1.4895 -2.19058,-5.010053 -3.34065,-7.823463 -1.15008,-2.8134 -2.85584,-7.09965 -3.79059,-9.524997 -0.93474,-2.425347 -2.04617,-5.441597 -2.46983,-6.702778 -0.42366,-1.26118 -1.17019,-3.563055 -1.65895,-5.115277 -0.48876,-1.552223 -1.18037,-3.615973 -1.5369,-4.586111 -0.35654,-0.970139 -1.39976,-3.668889 -2.31828,-5.997222 -0.91851,-2.328334 -1.9461,-4.529052 -2.28354,-4.890485 l -0.61353,-0.657152 -2.04395,0.764739 c -1.12417,0.420606 -2.15017,0.830387 -2.27999,0.910625 l -0.23605,0.145886 0.30658,1.955066 c 0.16863,1.075287 0.47552,3.739349 0.682,5.920138 0.20647,2.180789 0.5141,9.045071 0.68363,15.25396 0.16952,6.208888 0.40638,15.257638 0.52637,20.108331 0.11998,4.8507 0.28523,9.02852 0.36722,9.28405 l 0.14908,0.46459 0.97215,-0.11182 0.97214,-0.11182 z m 24.67924,7.31745 c -0.0909,-0.147 -0.27234,-0.90106 -0.4033,-1.67569 -0.13097,-0.77464 -0.3822,-1.88468 -0.5583,-2.46676 -0.17609,-0.58208 -0.47351,-2.40771 -0.66093,-4.05695 -0.18741,-1.649233 -0.57657,-4.665483 -0.8648,-6.702773 -0.28823,-2.037295 -0.76536,-5.212295 -1.0603,-7.055558 -0.29493,-1.843264 -0.87059,-5.097639 -1.27924,-7.231945 -0.40865,-2.134305 -0.98554,-5.052213 -1.28199,-6.48424 -0.29644,-1.432027 -0.67481,-3.892652 -0.84081,-5.468055 -0.16601,-1.575404 -0.55517,-4.134371 -0.86481,-5.686593 -0.30963,-1.552222 -0.65133,-3.774722 -0.75931,-4.938889 l -0.19634,-2.116666 0.91906,-0.855244 c 0.50548,-0.470385 0.91906,-1.046259 0.91906,-1.279721 0,-0.233462 0.24726,-0.629689 0.54948,-0.880504 l 0.54948,-0.456027 2.36093,0.797208 c 1.29852,0.438465 4.66282,1.999177 7.47622,3.468249 2.8134,1.469072 5.62235,2.955285 6.2421,3.302695 0.61976,0.347411 2.28663,1.51157 3.70417,2.587021 1.41754,1.075451 2.98783,2.39283 3.48954,2.92751 0.5017,0.53468 1.48341,1.791359 2.18156,2.79262 0.69816,1.00126 1.59712,2.462917 1.99771,3.248127 0.40058,0.785209 1.12341,2.664745 1.60629,4.176748 l 0.87796,2.749095 0.004,3.061278 c 0.002,1.683704 -0.16035,4.303079 -0.36183,5.820834 l -0.36633,2.759554 -1.13298,2.285635 c -0.62313,1.257098 -1.86705,3.202918 -2.76427,4.324038 -0.89722,1.12112 -2.04816,2.36629 -2.55764,2.76705 l -0.92633,0.728653 v 0.6709 0.67089 l -2.06869,2.40356 -2.06868,2.40356 -2.60562,1.28613 c -1.43309,0.70737 -3.46788,1.53485 -4.52174,1.83883 -1.05386,0.30399 -2.51293,0.5527 -3.24238,0.5527 -0.72944,0 -1.40059,-0.12027 -1.49144,-0.26727 z m 6.29595,-4.19517 2.82343,-0.93466 1.86089,-1.18325 1.86088,-1.18326 3.1965,-3.261943 3.19649,-3.26195 1.35104,-2.30363 1.35104,-2.303627 0.55227,-2.131248 c 0.30374,-1.172186 0.6469,-3.469303 0.76258,-5.104704 l 0.21032,-2.973456 -0.53215,-2.532275 c -0.29269,-1.392751 -0.90601,-3.457829 -1.36293,-4.589062 -0.45693,-1.131233 -1.46004,-3.00616 -2.22913,-4.166505 -0.7691,-1.160344 -2.03336,-2.730174 -2.80947,-3.488511 -0.77611,-0.758336 -2.52236,-2.212958 -3.88055,-3.232493 l -2.46945,-1.8537 -6.29319,-3.204551 c -3.46125,-1.762503 -6.93425,-3.377174 -7.71779,-3.588157 l -1.4246,-0.383607 -0.26778,0.290264 -0.26777,0.290265 0.45473,3.351388 c 0.2501,1.843264 0.78767,5.165091 1.19459,7.381837 0.40693,2.216746 0.73987,4.667815 0.73987,5.44682 0,0.779004 0.17078,2.378428 0.37953,3.554274 0.20874,1.175846 0.67629,3.646027 1.039,5.489291 0.36271,1.843264 0.83214,4.383264 1.04318,5.644444 0.21103,1.261181 0.70653,4.753681 1.10111,7.761111 0.39458,3.007432 0.87648,7.052385 1.07088,8.988775 l 0.35347,3.52073 0.37183,0.44802 c 0.20451,0.24642 0.62966,0.44803 0.94479,0.44803 0.31513,0 1.84351,-0.42059 3.39639,-0.93466 z m -1.75054,-4.09242 c -0.0781,-0.24253 -0.39295,-2.742853 -0.69955,-5.556253 -0.30661,-2.813402 -0.80433,-6.940902 -1.10605,-9.172222 -0.30173,-2.231319 -0.99974,-6.358819 -1.55114,-9.172222 -0.5514,-2.813402 -1.26621,-6.702777 -1.58848,-8.643055 -0.32227,-1.940278 -0.80419,-4.718403 -1.07094,-6.173611 -0.26674,-1.455208 -0.4934,-2.923646 -0.50368,-3.263194 l -0.0187,-0.617361 h 0.62706 c 0.34488,0 0.9402,0.209864 1.32292,0.466366 0.38272,0.256501 1.25148,0.688191 1.93057,0.959311 0.6791,0.271119 2.5841,1.390251 4.23334,2.486958 l 2.99861,1.994014 2.65495,2.602925 2.65495,2.602925 1.96137,2.822223 c 1.07875,1.552222 2.22282,3.4932 2.54237,4.313285 l 0.581,1.491063 0.069,3.271437 0.069,3.271436 -1.25345,2.822223 c -0.6894,1.552222 -1.80144,3.630753 -2.47119,4.618957 -0.66975,0.988202 -1.75534,2.465722 -2.41242,3.283362 l -1.19469,1.48663 -1.97194,1.19789 c -1.08457,0.65885 -2.58066,1.681643 -3.32464,2.272893 -0.74399,0.59125 -1.57399,1.07499 -1.84444,1.07499 -0.27045,0 -0.55567,-0.19844 -0.63382,-0.44097 z m 2.87121,-2.155233 c 0.54846,-0.45777 1.50574,-1.09302 2.12729,-1.41167 0.62155,-0.31864 1.71356,-1.17442 2.42669,-1.90171 0.71313,-0.7273 1.74145,-2.03071 2.28516,-2.896475 l 0.98856,-1.574113 -0.27062,-0.483579 -0.27063,-0.48358 0.85095,-2.528418 0.85095,-2.528419 0.0563,-2.469444 0.0563,-2.469445 -0.62067,-1.971175 -0.62066,-1.971176 -1.59731,-1.90938 c -0.87852,-1.050159 -2.68076,-3.179379 -4.00498,-4.731602 l -2.40768,-2.822222 -1.89567,-1.037368 c -1.04262,-0.570553 -2.63854,-1.441639 -3.5465,-1.935747 l -1.65082,-0.898379 -0.23268,0.232675 -0.23267,0.232675 0.43002,2.585016 c 0.23652,1.42176 0.55311,3.299392 0.70355,4.172517 0.15044,0.873125 0.73884,3.889375 1.30756,6.702778 0.56872,2.813402 1.29979,6.940902 1.62459,9.172222 0.32481,2.231319 0.81842,6.082231 1.09692,8.557579 0.2785,2.47535 0.60372,4.65817 0.72271,4.8507 0.11899,0.192533 0.35355,0.350053 0.52124,0.350053 0.16769,0 0.75364,-0.374543 1.3021,-0.832313 z m 22.00434,-11.783097 -0.76686,-0.620966 -0.19972,-1.489043 -0.19973,-1.489042 0.42218,-1.019229 0.42218,-1.019229 0.8747,-0.39854 c 0.48109,-0.219197 1.08377,-0.39854 1.33929,-0.39854 h 0.46459 l 0.92992,1.341879 0.92992,1.341878 v 0.926059 0.926058 l -1.18818,1.259841 -1.18818,1.25984 h -0.53663 c -0.29514,0 -0.88171,-0.279434 -1.30348,-0.620966 z m 2.78766,-1.650756 0.42146,-0.507834 -0.11368,-0.95589 -0.11369,-0.95589 -0.6274,-0.388359 -0.6274,-0.38836 -0.34586,0.529167 c -0.19022,0.291041 -0.44155,0.888415 -0.55852,1.327497 l -0.21266,0.798332 0.43537,0.524585 c 0.23945,0.288522 0.63461,0.524586 0.87814,0.524586 0.24353,0 0.63243,-0.228526 0.86424,-0.507834 z"
       id="path1"
       clip-path="url(#clipPath2)"
       transform="translate(289.46182,5.1038522)" /></g></svg>
