<?xml version="1.0" standalone="no"?>
<!DOCTYPE svg PUBLIC "-//W3C//DTD SVG 20010904//EN"
 "http://www.w3.org/TR/2001/REC-SVG-20010904/DTD/svg10.dtd">
<svg version="1.0" xmlns="http://www.w3.org/2000/svg"
 width="1123.000000pt" height="1123.000000pt" viewBox="0 0 1123.000000 1123.000000"
 preserveAspectRatio="xMidYMid meet">
<metadata>
Created by potrace 1.14, written by Peter Selinger 2001-2017
</metadata>
<g transform="translate(0.000000,1123.000000) scale(0.100000,-0.100000)"
fill="#000000" stroke="none">
<path d="M4898 9046 c-8 -6 -22 -25 -31 -42 -9 -18 -30 -43 -46 -57 -16 -13
-28 -27 -25 -30 3 -2 7 -31 9 -63 2 -33 6 -68 8 -79 6 -29 20 -107 22 -125 1
-8 5 -28 8 -45 7 -30 12 -67 22 -160 4 -27 8 -63 11 -80 3 -16 7 -43 10 -60 2
-16 6 -41 9 -55 2 -14 12 -59 20 -100 23 -114 41 -209 60 -320 3 -14 7 -36 9
-50 7 -35 17 -100 21 -130 2 -23 13 -90 21 -134 3 -18 10 -68 19 -151 2 -16 9
-66 15 -110 6 -44 13 -96 15 -115 5 -34 28 -145 47 -222 9 -37 15 -41 68 -40
38 0 117 15 127 24 7 6 13 8 13 5 0 -7 47 12 158 64 83 39 108 59 172 139 19
24 44 52 54 62 11 10 20 32 21 48 1 19 10 37 24 46 30 21 76 73 123 137 21 29
42 57 46 62 23 30 84 159 88 187 3 18 7 44 9 58 8 51 18 217 18 286 -1 109
-69 303 -149 423 -16 24 -33 51 -39 59 -32 50 -77 96 -141 148 -27 21 -51 41
-54 44 -24 25 -181 121 -295 180 -77 40 -147 77 -155 81 -46 24 -179 83 -234
103 -47 17 -67 20 -78 12z m79 -60 c77 -27 460 -213 490 -237 6 -6 18 -11 25
-13 20 -2 215 -153 267 -205 32 -33 111 -138 111 -148 0 -6 3 -13 8 -15 11 -5
58 -98 77 -153 71 -212 74 -301 18 -565 -3 -14 -6 -30 -7 -35 -1 -6 -24 -50
-51 -100 -40 -70 -77 -116 -177 -220 -157 -161 -232 -209 -396 -257 -111 -32
-112 -32 -132 -13 -12 13 -21 39 -25 71 -2 28 -7 71 -10 95 -10 89 -26 225
-30 254 -13 104 -17 134 -21 165 -3 19 -7 50 -9 67 -5 38 -57 337 -80 453 -19
96 -27 152 -30 199 -4 63 -12 123 -25 201 -5 30 -12 69 -14 85 -3 17 -12 73
-21 125 -9 52 -18 113 -21 135 -2 22 -6 54 -8 70 -2 17 1 36 6 43 13 15 7 15
55 -2z"/>
<path d="M5055 8800 c-3 -5 -4 -13 -2 -17 3 -5 8 -32 12 -62 4 -30 9 -63 11
-75 4 -22 8 -41 24 -136 5 -30 12 -71 16 -90 4 -19 7 -42 9 -50 3 -19 11 -66
41 -225 45 -240 52 -282 60 -350 3 -27 7 -57 9 -65 3 -8 7 -37 10 -65 3 -27
10 -84 15 -125 5 -41 12 -100 15 -130 3 -30 7 -66 9 -80 2 -14 7 -50 11 -82 3
-32 12 -58 19 -61 16 -6 56 13 85 40 11 10 60 43 108 73 69 42 101 70 144 125
61 76 134 194 167 265 53 118 54 122 52 235 -2 153 -2 151 -42 230 -125 243
-353 461 -635 605 -98 50 -127 59 -138 40z m170 -206 c44 -24 103 -56 130 -70
39 -20 77 -58 175 -175 69 -82 137 -164 152 -182 16 -18 29 -35 29 -39 2 -12
5 -21 12 -38 23 -59 30 -107 28 -189 -1 -75 -7 -113 -32 -188 -19 -57 -29
-103 -25 -118 6 -24 -11 -75 -25 -75 -4 0 -11 -9 -14 -20 -10 -32 -116 -135
-175 -171 -30 -18 -61 -39 -68 -46 -23 -22 -54 -35 -63 -26 -9 9 -33 156 -44
263 -3 36 -8 74 -10 85 -3 11 -7 38 -9 60 -9 73 -17 129 -33 220 -8 50 -17 99
-19 110 -9 56 -35 188 -48 250 -8 39 -17 90 -21 115 -4 24 -8 47 -10 50 -1 3
-6 28 -10 55 -11 78 -13 88 -19 123 -6 33 -2 52 12 52 4 -1 43 -21 87 -46z"/>
<path d="M4175 8883 c-11 -3 -24 -9 -30 -13 -5 -4 -35 -15 -65 -25 -72 -23
-120 -45 -120 -56 0 -4 -13 -29 -29 -54 -16 -26 -28 -56 -26 -68 21 -129 37
-382 51 -767 2 -80 7 -197 9 -260 2 -63 7 -218 10 -345 7 -329 15 -538 20
-566 3 -13 8 -39 11 -57 8 -42 15 -46 88 -43 85 3 90 5 121 62 l28 51 0 368 0
367 65 32 66 33 17 -23 c9 -12 36 -63 59 -113 52 -110 43 -93 133 -268 40 -79
87 -174 104 -213 17 -38 39 -80 49 -93 l19 -23 48 20 c26 11 48 19 50 18 3 -2
26 16 63 50 18 17 23 30 20 50 -4 17 1 34 10 45 22 23 17 38 -76 259 -82 192
-102 241 -105 249 -1 3 -13 30 -27 60 -31 64 -86 203 -123 310 -14 41 -30 84
-35 95 -5 11 -18 49 -30 85 -12 36 -25 74 -30 85 -5 11 -27 76 -50 145 -57
172 -139 392 -180 485 -58 132 -58 132 -115 118z m29 -59 c20 -19 68 -122 112
-239 19 -49 38 -99 43 -110 14 -30 52 -138 56 -158 2 -9 7 -22 10 -27 3 -5 8
-18 10 -27 2 -10 15 -52 30 -93 14 -41 27 -83 30 -93 9 -39 156 -429 205 -542
4 -11 29 -72 55 -135 59 -145 68 -166 116 -268 21 -46 39 -91 39 -100 0 -19
-48 -52 -75 -52 -17 0 -46 58 -165 325 -93 210 -99 223 -145 321 -42 89 -43
91 -76 89 -19 -1 -82 -25 -141 -53 l-108 -52 -1 -43 c0 -23 -2 -204 -3 -402
-2 -198 -4 -367 -5 -375 -1 -20 -70 -27 -72 -8 -1 7 -3 24 -4 38 -5 35 -16
394 -30 935 -12 436 -18 593 -30 715 -3 30 -7 78 -10 105 -2 28 -7 60 -9 72
-3 12 -7 46 -10 75 l-6 54 37 13 c21 8 49 18 63 24 14 6 28 11 32 11 3 1 10 4
14 9 11 11 21 9 38 -9z"/>
<path d="M7185 8839 c-4 -6 -26 -24 -48 -40 -29 -21 -54 -54 -84 -112 -110
-208 -175 -352 -214 -472 -24 -71 -57 -152 -75 -180 -18 -27 -64 -113 -102
-190 -39 -77 -92 -178 -119 -225 -26 -47 -69 -130 -95 -185 -97 -208 -109
-233 -167 -341 -39 -74 -61 -126 -64 -157 l-5 -45 47 -20 c25 -11 63 -25 84
-30 36 -10 38 -9 53 20 14 28 19 30 54 25 20 -2 42 -2 47 2 5 3 31 44 58 91
27 47 70 117 95 155 76 113 144 226 168 278 12 26 30 51 38 54 19 7 183 -24
200 -38 9 -8 12 -107 12 -397 -1 -341 1 -394 17 -449 18 -63 19 -65 85 -80 33
-7 127 -4 151 6 15 5 30 7 33 4 3 -4 6 -2 7 3 0 5 2 23 4 39 6 72 20 360 30
620 7 203 22 500 25 500 1 0 3 18 5 40 1 22 5 69 9 105 6 64 10 115 21 255 3
39 7 81 10 94 2 13 7 43 10 68 2 24 7 48 10 53 7 12 13 88 20 292 l7 177 -39
10 c-21 6 -87 26 -147 46 -118 38 -131 40 -141 24z m180 -82 c113 -32 108 -23
101 -167 -4 -69 -8 -136 -10 -150 -3 -14 -7 -56 -10 -95 -3 -38 -8 -79 -10
-90 -2 -11 -7 -40 -10 -65 -3 -25 -8 -54 -10 -65 -11 -57 -16 -114 -31 -335
-3 -47 -8 -114 -10 -150 -4 -60 -8 -114 -20 -305 -2 -38 -7 -115 -10 -170 -3
-55 -8 -131 -10 -170 -4 -52 -14 -328 -15 -417 0 -3 -15 -5 -32 -3 -18 2 -40
4 -49 4 -9 1 -24 13 -34 27 -17 27 -18 78 -10 697 l3 228 -37 15 c-32 14 -111
33 -196 48 -16 3 -40 8 -53 12 -31 9 -51 -16 -118 -146 -55 -108 -88 -163
-234 -395 -93 -148 -93 -148 -167 -110 -44 22 -47 30 -25 68 96 160 357 679
412 818 11 26 28 66 38 90 11 24 26 59 33 77 8 17 17 32 21 32 5 0 8 7 8 15 0
9 10 35 21 58 12 23 21 44 20 46 -2 2 1 7 6 10 5 3 17 24 28 46 10 22 44 94
77 160 57 117 118 276 118 309 0 9 7 19 15 22 8 4 15 12 15 20 0 8 4 14 9 14
5 0 14 13 21 29 l12 29 66 -19 c37 -11 72 -21 77 -22z"/>
<path d="M3160 8672 c0 -4 -26 -8 -58 -8 -83 -2 -220 -53 -317 -119 -103 -69
-222 -170 -260 -221 -16 -21 -33 -40 -37 -42 -4 -2 -8 -10 -8 -17 0 -7 -3 -15
-8 -17 -14 -6 -77 -113 -109 -185 -25 -59 -30 -78 -23 -108 4 -19 6 -35 4 -35
-3 0 42 -107 84 -200 56 -123 104 -247 201 -520 121 -341 183 -508 216 -585 8
-16 59 -145 115 -285 217 -546 206 -523 247 -510 126 38 143 52 177 140 18 46
16 80 -8 145 -4 11 -13 34 -19 50 -6 17 -23 58 -39 93 -15 34 -28 64 -28 67 0
2 -14 34 -31 72 -44 97 -51 115 -104 243 -58 143 -63 155 -74 183 -5 12 -14
36 -21 52 -7 17 -14 40 -16 53 -5 23 -3 22 43 -9 39 -27 181 -134 228 -172 48
-39 217 -157 224 -157 5 0 11 -3 13 -8 4 -9 150 -102 195 -124 25 -12 36 -13
48 -4 9 6 45 70 80 141 l65 130 -30 25 c-16 14 -55 39 -87 55 -32 17 -86 47
-121 68 -34 20 -64 37 -67 37 -7 0 -190 125 -193 133 -2 4 -7 7 -12 7 -4 0
-51 27 -103 60 -53 33 -99 60 -102 60 -12 0 -115 70 -115 78 0 4 28 21 63 37
76 36 215 139 271 201 65 73 155 203 191 277 19 37 32 67 29 67 -2 0 1 12 7
28 6 15 12 34 14 42 2 8 8 37 15 64 11 50 15 192 6 235 -3 13 -13 49 -22 80
-9 31 -16 57 -16 58 4 17 -73 154 -114 205 -78 96 -145 129 -273 134 -52 2
-101 6 -108 8 -7 3 -13 2 -13 -2z m194 -59 c51 -13 81 -27 108 -52 21 -18 47
-40 58 -48 25 -18 111 -195 135 -277 25 -85 20 -269 -8 -321 -6 -11 -10 -21
-9 -22 6 -9 -2 -25 -29 -59 -17 -22 -43 -54 -57 -73 -15 -18 -63 -60 -107 -93
-44 -32 -87 -64 -95 -71 -8 -7 -82 -64 -165 -126 -151 -115 -188 -145 -232
-191 l-24 -24 153 -76 c175 -87 212 -107 358 -201 92 -59 225 -143 382 -241
26 -16 50 -38 53 -48 6 -19 -20 -70 -35 -70 -11 0 -99 67 -125 94 -11 12 -46
34 -77 49 -32 15 -84 39 -115 54 -56 26 -364 227 -520 339 -68 49 -115 94 -98
94 3 0 0 10 -7 23 -14 26 -18 39 -24 87 -4 34 -2 36 77 85 44 28 88 55 98 60
80 47 162 105 196 136 22 20 56 51 75 69 138 127 170 165 186 225 2 6 10 35
19 65 29 104 28 114 -20 211 -25 49 -46 92 -47 96 -6 22 -125 102 -198 133
-69 29 -142 29 -245 1 -115 -32 -230 -89 -310 -153 -26 -21 -68 -58 -124 -107
-74 -65 -77 -87 -25 -168 40 -62 85 -158 103 -218 7 -22 16 -49 22 -60 11 -26
70 -185 74 -205 3 -8 16 -46 30 -84 14 -38 24 -75 21 -83 -3 -7 -8 -34 -12
-59 -6 -45 -5 -48 43 -98 30 -31 57 -71 68 -101 10 -27 26 -68 35 -90 10 -22
86 -200 169 -395 83 -195 156 -364 161 -375 21 -45 68 -172 74 -200 3 -16 2
-37 -4 -45 -5 -8 -10 -12 -10 -8 0 4 -10 4 -22 -1 -65 -24 -77 -23 -93 9 -22
43 -87 225 -131 365 -20 66 -78 226 -129 355 -91 231 -148 380 -151 390 -1 8
-15 43 -25 65 -4 11 -31 81 -59 155 -28 74 -55 144 -60 155 -4 11 -54 137
-110 280 -56 143 -106 268 -111 277 -17 33 -9 63 41 150 39 66 74 108 148 178
176 166 288 224 496 255 22 3 42 7 44 9 8 9 119 -3 186 -21z m-72 -334 c78
-32 219 -168 212 -205 -2 -13 -6 -41 -8 -62 -8 -87 -62 -159 -222 -297 -38
-33 -80 -70 -94 -83 -24 -22 -137 -93 -231 -145 -25 -14 -58 -27 -73 -29 -27
-3 -28 0 -107 207 -112 293 -129 340 -129 356 1 12 200 155 235 168 5 2 24 15
41 27 16 13 62 38 101 56 61 29 80 33 144 32 52 -2 91 -9 131 -25z"/>
<path d="M8051 8500 c-35 -31 -36 -32 -73 -34 -11 0 -22 -8 -24 -16 -2 -15
-46 -135 -63 -175 -5 -11 -17 -42 -26 -70 -30 -89 -66 -189 -76 -210 -24 -55
-70 -213 -94 -325 -32 -152 -28 -131 -60 -270 -15 -63 -28 -126 -30 -140 -2
-14 -4 -25 -5 -25 -1 0 -3 -7 -5 -15 -1 -8 -8 -40 -14 -70 -6 -30 -13 -71 -16
-90 -5 -39 -8 -54 -30 -155 -8 -38 -17 -83 -20 -100 -3 -16 -11 -57 -17 -90
-12 -64 -15 -160 -5 -210 14 -76 20 -104 38 -165 16 -55 25 -69 59 -93 22 -16
57 -30 78 -33 20 -2 53 -7 72 -10 174 -26 222 -10 337 108 67 69 122 131 172
194 5 6 33 49 63 95 207 319 321 549 412 827 36 112 66 209 66 217 0 16 -16
22 -98 39 -36 8 -65 10 -68 5 -3 -5 -10 -7 -15 -3 -5 3 -17 0 -26 -8 -9 -7
-30 -17 -47 -23 -27 -9 -34 -21 -68 -110 -20 -55 -68 -163 -106 -240 -38 -77
-100 -203 -138 -280 -38 -77 -71 -142 -74 -145 -3 -3 -23 -39 -45 -81 -46 -88
-177 -247 -235 -285 -48 -32 -76 -26 -86 19 -4 18 -10 39 -12 47 -7 25 -3 82
8 130 6 25 12 59 15 75 6 43 19 104 61 285 24 103 36 149 51 200 4 14 8 30 9
35 1 6 29 120 62 255 66 267 100 411 107 450 3 14 11 52 20 85 8 33 17 74 20
90 3 17 14 62 26 100 65 218 65 217 -1 230 -19 3 -42 8 -50 11 -8 2 -30 -10
-49 -26z m94 -32 c3 -3 -1 -32 -10 -64 -9 -33 -17 -63 -19 -69 -1 -5 -11 -37
-21 -70 -10 -33 -19 -65 -21 -72 -1 -6 -7 -35 -14 -65 -6 -29 -13 -69 -16 -88
-4 -38 -14 -86 -46 -220 -11 -47 -22 -93 -24 -104 -7 -38 -48 -196 -95 -375
-28 -102 -51 -194 -54 -205 -2 -12 -4 -22 -4 -23 -1 -2 -1 -5 -2 -8 0 -2 -4
-19 -9 -36 -5 -18 -12 -51 -16 -73 -3 -23 -19 -97 -35 -166 -35 -146 -34 -132
-25 -240 9 -107 33 -137 113 -145 47 -5 57 -2 111 32 32 21 65 48 73 60 32 51
283 415 339 492 77 105 154 238 182 314 11 32 25 60 29 63 5 3 9 34 9 69 0 47
7 80 25 121 l25 56 41 -5 c69 -8 70 0 -22 -272 -47 -140 -159 -386 -228 -500
-17 -27 -34 -57 -38 -65 -51 -109 -340 -500 -368 -500 -8 0 -15 -4 -17 -9 -1
-4 -22 -20 -45 -34 -38 -24 -49 -26 -135 -23 -129 4 -166 21 -196 88 -19 44
-23 70 -25 182 -1 72 2 158 6 191 10 72 13 95 21 160 10 79 16 119 21 145 19
99 27 137 32 150 3 8 7 22 9 29 8 41 36 158 41 171 3 8 7 22 8 30 1 8 14 65
29 125 15 61 29 118 31 128 2 10 7 27 10 37 3 10 8 29 10 42 17 86 150 495
191 586 13 29 24 55 24 57 0 2 11 29 25 60 21 49 27 55 49 52 14 -1 28 -6 31
-9z"/>
<path d="M6262 7955 c-45 -20 -66 -70 -57 -144 8 -64 17 -79 64 -98 l34 -15
50 50 c60 60 64 96 21 163 -43 66 -53 70 -112 44z m87 -72 c2 -1 6 -20 8 -42
4 -34 1 -42 -21 -57 -25 -16 -28 -16 -47 2 -23 21 -20 60 7 102 13 20 18 21
32 10 9 -7 19 -13 21 -15z"/>
<path d="M5357 6814 c-1 -1 -33 -5 -72 -8 -97 -9 -169 -19 -260 -36 -27 -5
-61 -11 -75 -14 -82 -14 -206 -58 -390 -139 -38 -17 -145 -81 -148 -89 -2 -5
-8 -8 -12 -8 -12 0 -359 -219 -384 -242 -11 -10 -23 -18 -27 -18 -4 0 -14 -6
-21 -13 -7 -7 -33 -28 -58 -47 -94 -73 -167 -143 -270 -259 -36 -41 -70 -79
-75 -85 -73 -78 -186 -220 -203 -253 -28 -56 -46 -87 -52 -93 -12 -10 -105
-211 -138 -295 -8 -22 -19 -44 -23 -50 -4 -5 -19 -41 -33 -80 -15 -38 -30 -79
-35 -90 -14 -31 -66 -175 -118 -325 -2 -8 -7 -26 -9 -40 -3 -14 -9 -36 -14
-50 -14 -39 -41 -150 -46 -190 -13 -120 -16 -177 -17 -280 -1 -158 16 -345 39
-443 4 -18 8 -34 9 -37 1 -3 5 -25 9 -50 5 -25 10 -52 12 -60 1 -8 10 -47 18
-85 46 -211 142 -453 223 -561 13 -17 23 -33 23 -37 0 -15 204 -307 285 -407
113 -139 199 -226 281 -283 34 -23 88 -60 120 -83 55 -38 342 -214 349 -214 6
0 130 -73 135 -79 9 -12 61 -42 78 -46 14 -4 250 -89 312 -112 8 -3 26 -8 40
-10 14 -2 59 -10 100 -18 41 -8 91 -16 111 -19 20 -3 42 -8 50 -10 8 -3 31 -8
53 -11 21 -3 41 -7 45 -9 3 -3 25 -7 47 -10 23 -4 54 -10 70 -14 16 -4 193 -7
394 -6 l365 2 125 32 c69 17 136 34 150 37 74 13 113 25 174 53 37 16 72 30
78 30 5 0 34 11 64 25 30 14 56 25 59 25 4 0 212 97 294 138 57 28 237 198
341 322 30 35 61 71 69 80 23 24 211 278 211 284 0 4 12 25 27 49 82 130 193
357 234 482 19 55 34 103 35 108 1 4 2 8 4 10 1 1 3 9 5 17 3 18 44 159 52
180 3 8 7 24 9 35 1 11 12 65 24 120 36 167 43 202 56 280 1 11 5 29 7 40 3
11 8 47 12 80 5 33 9 67 10 75 20 146 26 421 11 575 -5 50 -10 104 -11 120 -8
87 -37 256 -62 350 -4 18 -13 55 -27 113 -32 138 -133 394 -175 444 -6 7 -47
60 -90 118 -115 152 -200 252 -304 359 -162 165 -222 212 -397 312 -263 150
-400 211 -530 236 -14 2 -32 7 -40 10 -8 3 -23 8 -32 9 -10 2 -53 13 -95 25
-69 19 -211 55 -253 64 -8 2 -46 11 -85 20 -128 30 -152 35 -230 41 -60 5
-404 12 -408 8z m113 -271 c0 -9 -16 -13 -50 -13 -54 0 -63 6 -27 19 32 12 77
8 77 -6z m-226 -23 c-6 -6 -19 -12 -30 -15 -53 -12 -122 -33 -142 -44 -12 -7
-27 -9 -32 -6 -6 3 -10 2 -10 -2 0 -5 -17 -15 -37 -22 -21 -8 -56 -22 -78 -31
-22 -10 -67 -28 -100 -40 -33 -13 -111 -47 -174 -77 -104 -50 -154 -62 -106
-26 68 50 265 135 500 214 164 55 231 71 209 49z m541 -14 c33 -4 71 -9 85
-11 60 -11 97 -17 120 -19 38 -5 275 -54 365 -77 98 -25 97 -25 115 -31 8 -3
38 -14 65 -23 48 -17 227 -116 245 -135 3 -3 27 -19 54 -34 61 -35 152 -127
387 -387 42 -46 93 -102 114 -124 61 -67 129 -177 227 -365 40 -78 99 -211
105 -235 2 -10 4 -17 23 -90 6 -22 12 -49 15 -60 2 -11 6 -29 9 -40 12 -44 34
-153 40 -195 3 -25 8 -54 10 -65 20 -104 26 -310 12 -473 -10 -135 -14 -161
-30 -219 -8 -29 -12 -53 -9 -53 3 0 1 -6 -4 -12 -14 -17 -30 -103 -38 -193 -4
-51 -81 -306 -137 -450 -42 -109 -73 -168 -167 -319 -44 -71 -103 -176 -132
-232 -45 -88 -69 -121 -163 -220 -61 -65 -151 -151 -201 -192 -49 -41 -110
-93 -135 -116 -43 -40 -66 -53 -238 -133 -109 -50 -166 -71 -272 -98 -134 -34
-143 -35 -349 -40 -102 -2 -275 -7 -383 -10 -180 -5 -235 -2 -338 21 -14 3
-36 7 -50 10 -109 21 -390 121 -520 184 -58 29 -141 69 -185 91 -44 21 -93 52
-110 67 -59 54 -122 101 -270 200 -145 97 -195 139 -280 233 -66 73 -159 190
-206 259 -44 66 -54 82 -91 149 -11 20 -28 50 -38 66 -10 17 -19 33 -19 37 -1
5 -13 34 -28 65 -15 32 -28 65 -30 73 -1 8 -25 87 -53 175 -28 88 -52 169 -55
180 -2 11 -8 34 -13 50 -9 32 -9 469 1 520 7 41 16 101 22 155 3 25 7 56 10
70 2 14 7 48 10 75 8 74 9 75 37 135 47 98 78 172 78 184 0 14 78 205 105 256
52 100 271 415 328 472 9 9 17 19 17 23 0 4 6 12 13 19 6 8 21 24 33 37 11 13
51 51 89 84 38 33 90 78 115 100 25 22 63 54 84 70 21 17 44 35 50 40 27 25
85 73 120 100 22 17 49 39 61 50 23 21 51 37 215 120 111 56 145 71 280 128
109 46 191 78 210 82 8 2 28 8 43 14 34 13 52 16 207 37 25 3 56 7 70 9 14 2
61 7 105 10 44 4 81 8 82 9 4 4 105 -1 168 -8z m-1454 -393 c-13 -25 -137
-143 -149 -143 -6 0 -12 -3 -14 -7 -3 -9 -50 -47 -94 -78 -35 -25 -129 -104
-169 -143 -16 -15 -78 -91 -137 -168 -60 -76 -115 -148 -124 -159 -55 -68
-224 -346 -224 -369 0 -7 -4 -16 -9 -21 -5 -6 -20 -46 -34 -90 -31 -98 -63
-170 -70 -158 -8 13 18 136 57 263 29 95 70 176 128 255 54 73 158 217 172
240 46 71 343 351 481 452 77 56 151 112 165 123 31 24 33 25 21 3z m2964
-313 c11 -14 36 -45 55 -70 19 -25 40 -51 47 -58 7 -7 29 -34 50 -60 21 -26
40 -49 43 -52 11 -11 88 -128 113 -171 86 -151 165 -361 169 -448 1 -24 7 -49
14 -56 7 -7 16 -34 19 -60 3 -26 9 -54 14 -63 13 -27 22 -240 9 -248 -4 -3 -9
1 -9 8 -1 7 -2 29 -4 48 -1 20 -10 68 -19 107 -9 39 -19 88 -22 110 -3 21 -17
81 -30 133 -14 52 -27 106 -30 120 -19 89 -156 365 -260 525 -39 61 -107 147
-150 191 -96 99 -134 145 -134 163 0 13 78 -62 125 -119z m558 -1394 c6 -16
-2 -28 -14 -20 -12 7 -11 34 0 34 5 0 11 -6 14 -14z m-4648 -83 c-3 -43 -8
-100 -10 -128 -2 -27 -7 -97 -11 -155 -3 -58 -7 -114 -8 -125 -1 -11 3 -40 10
-65 11 -45 11 -97 0 -108 -13 -12 -20 18 -33 133 -14 122 -5 388 14 419 4 6 9
20 10 31 4 24 24 75 30 75 2 0 1 -35 -2 -77z m4650 -75 c-4 -48 -4 -48 -15
-48 -5 0 -10 18 -10 40 0 27 4 40 14 40 9 0 13 -10 11 -32z m-19 -124 c-3 -9
-6 -18 -6 -20 0 -3 -4 -3 -10 1 -11 7 -2 35 12 35 6 0 7 -7 4 -16z m-18 -164
c-5 -36 -11 -76 -13 -90 -5 -41 -23 -130 -50 -253 -19 -83 -93 -324 -116 -374
-15 -35 -26 -63 -24 -63 9 0 -92 -266 -131 -343 -18 -36 -81 -132 -104 -158
-16 -19 -21 -25 -65 -84 -16 -22 -34 -45 -40 -52 -5 -7 -21 -27 -35 -44 -73
-92 -270 -295 -349 -359 -91 -73 -165 -119 -226 -140 l-30 -10 30 25 c48 41
54 45 60 45 4 0 12 6 19 13 7 6 37 33 67 59 30 25 65 56 79 68 14 12 41 34 60
48 41 31 137 126 200 201 25 29 61 71 81 93 20 22 42 59 49 82 16 54 41 102
98 190 57 87 59 91 101 163 90 157 115 210 152 333 12 41 40 129 62 195 27 82
40 142 42 190 2 39 10 87 19 108 9 20 13 37 10 37 -4 0 -1 7 6 15 7 8 10 15 6
15 -3 0 -1 11 4 25 5 14 12 48 15 77 7 58 13 74 25 61 4 -4 4 -37 -2 -73z
m-4608 -300 c0 -5 -2 -10 -4 -10 -3 0 -8 5 -11 10 -3 6 -1 10 4 10 6 0 11 -4
11 -10z m50 -170 c24 -74 45 -140 46 -145 2 -12 36 -97 65 -162 11 -24 19 -47
19 -52 0 -5 7 -14 15 -21 8 -6 13 -15 12 -18 -3 -9 71 -140 83 -147 6 -4 8
-10 5 -14 -2 -5 4 -16 15 -26 11 -10 20 -24 20 -32 0 -7 4 -13 9 -13 5 0 12
-8 15 -17 3 -10 23 -37 43 -60 21 -23 45 -51 53 -61 17 -22 91 -109 132 -156
15 -17 28 -35 28 -39 0 -22 -75 40 -189 155 l-126 127 -107 213 c-110 219
-118 241 -162 438 -51 230 -43 240 24 30z m718 -1067 c155 -97 184 -117 256
-185 28 -26 46 -48 40 -48 -11 0 -244 145 -254 158 -3 4 -23 19 -45 34 -44 30
-124 108 -111 108 4 0 56 -30 114 -67z m606 -383 c47 -22 65 -34 56 -40 -14
-9 -36 -4 -57 13 -7 5 -13 7 -13 3 0 -3 -36 13 -80 36 -44 23 -80 45 -80 49 0
10 88 -20 174 -61z m160 -78 c3 -5 -1 -9 -9 -9 -8 0 -12 4 -9 9 3 4 7 8 9 8 2
0 6 -4 9 -8z m61 -22 c18 -8 17 -9 -7 -9 -16 -1 -28 4 -28 9 0 12 8 12 35 0z
m1451 -92 c-17 -9 -100 -34 -149 -44 -10 -2 -27 -6 -37 -9 -42 -13 -70 -18
-160 -24 -108 -8 -430 -6 -505 3 -58 7 -84 25 -40 27 17 1 44 3 60 4 50 4 282
15 430 20 77 3 158 8 180 10 72 6 150 16 152 19 2 2 22 3 46 4 35 1 39 0 23
-10z"/>
<path d="M5639 6436 c-6 -7 -99 -20 -204 -30 -33 -3 -73 -8 -90 -11 -16 -2
-56 -7 -89 -10 -32 -4 -69 -10 -81 -15 -13 -5 -25 -7 -28 -4 -6 6 -190 -55
-197 -65 -3 -4 -86 -48 -185 -97 -99 -50 -199 -103 -222 -117 -24 -15 -45 -27
-49 -27 -31 0 -277 -228 -379 -351 -64 -76 -160 -208 -223 -304 -40 -60 -77
-115 -82 -122 -6 -7 -10 -15 -10 -19 0 -13 -131 -222 -179 -286 -59 -78 -119
-201 -166 -343 -33 -97 -37 -114 -51 -200 -3 -22 -14 -76 -24 -120 -22 -94
-27 -120 -37 -195 -10 -70 -10 -494 -1 -540 54 -255 167 -512 287 -648 93
-105 182 -194 281 -277 45 -38 90 -77 99 -86 13 -13 156 -129 211 -172 60 -47
90 -67 98 -67 6 0 12 -7 16 -15 3 -8 12 -15 19 -15 8 0 22 -9 32 -20 10 -11
24 -20 32 -20 7 0 13 -4 13 -10 0 -5 4 -10 10 -10 5 0 32 -13 60 -30 44 -26
179 -73 250 -86 14 -3 33 -7 42 -10 9 -3 26 -7 37 -9 12 -3 29 -7 39 -9 9 -3
58 -23 107 -46 84 -39 185 -80 202 -82 5 -1 22 -7 38 -13 30 -13 407 -14 505
-2 86 10 135 17 150 22 8 2 33 7 55 10 50 7 59 8 166 34 131 31 239 69 239 83
0 5 6 8 14 8 8 0 57 20 108 44 51 24 133 62 182 85 48 23 107 55 130 73 45 34
178 167 214 213 12 17 50 66 85 111 139 180 168 226 257 404 110 218 236 516
250 589 6 31 13 65 15 76 6 32 45 258 50 291 2 16 7 49 12 74 10 56 9 350 -1
445 -4 39 -11 115 -16 170 -16 185 -91 405 -204 605 -14 25 -29 52 -33 60 -18
39 -103 159 -168 237 -5 7 -15 18 -20 25 -6 7 -42 52 -80 100 -39 47 -78 96
-87 108 -151 199 -296 305 -568 415 -36 14 -78 32 -95 40 -134 61 -351 128
-450 140 -27 3 -66 8 -85 11 -49 7 -196 14 -201 10z m227 -54 c21 -6 52 -13
67 -16 15 -4 25 -11 22 -15 -3 -5 -6 -35 -6 -66 -1 -45 3 -60 20 -79 20 -21
21 -31 17 -97 -11 -147 -22 -247 -41 -399 -2 -19 -7 -64 -10 -100 -4 -36 -8
-76 -10 -90 -2 -14 -7 -52 -10 -85 -4 -33 -9 -73 -11 -90 -4 -30 -13 -114 -18
-169 -2 -16 -13 -41 -26 -55 -13 -14 -59 -71 -104 -126 -44 -55 -83 -102 -86
-105 -3 -3 -24 -31 -47 -62 -24 -31 -67 -82 -97 -113 l-55 -56 -38 21 c-94 52
-248 163 -336 242 -43 39 -50 51 -69 123 -11 44 -21 87 -22 95 -1 8 -6 26 -10
40 -4 14 -9 39 -11 55 -2 17 -4 30 -5 30 -1 0 -3 7 -5 15 -1 8 -9 35 -16 60
-16 56 -15 52 -22 70 -11 26 -44 153 -62 230 -9 41 -19 86 -22 100 -11 45 -13
55 -17 87 -3 18 -12 55 -20 83 -8 27 -12 50 -9 50 3 0 0 7 -7 15 -10 12 -8 22
8 53 19 36 21 72 7 129 -4 18 3 27 37 47 24 14 75 36 114 50 38 14 92 37 120
52 36 19 66 27 116 29 36 1 71 -1 76 -4 6 -3 13 -36 16 -73 4 -37 9 -77 11
-90 3 -13 10 -50 16 -83 6 -33 14 -64 17 -70 7 -11 9 -17 11 -40 3 -40 26 -5
49 75 3 8 5 77 6 153 1 139 1 139 27 152 14 8 57 16 95 19 162 13 219 18 222
21 6 5 76 -3 118 -13z m319 -77 c75 -24 350 -137 364 -150 12 -12 9 -20 -18
-54 -34 -42 -38 -59 -27 -101 5 -20 -3 -34 -39 -75 -84 -93 -202 -249 -335
-445 -146 -215 -176 -252 -189 -232 -8 13 -6 79 3 132 8 44 25 183 31 245 2
33 8 87 11 120 4 33 8 71 9 85 6 52 17 146 20 170 3 14 7 45 10 70 8 69 13 91
29 125 8 17 17 43 20 59 8 44 35 79 54 71 9 -4 35 -13 57 -20z m-1480 -222 c3
-15 19 -54 35 -88 16 -34 31 -73 34 -86 15 -72 76 -330 87 -369 15 -53 16 -59
23 -85 3 -11 19 -67 36 -125 17 -57 33 -116 35 -130 3 -14 11 -53 18 -87 20
-94 5 -101 -70 -36 -26 23 -66 59 -88 80 -34 33 -74 67 -224 198 -12 11 -33
29 -45 40 -122 110 -256 218 -334 270 l-53 36 43 45 c179 189 222 227 321 288
110 67 117 71 152 74 17 1 25 -5 30 -25z m1905 19 c0 -5 -11 -19 -25 -32 -29
-27 -33 -19 -7 15 17 25 32 32 32 17z m146 -55 c28 -19 60 -42 71 -53 11 -10
29 -26 39 -35 29 -24 73 -75 153 -178 41 -52 84 -106 97 -120 54 -62 76 -88
101 -124 l26 -38 -36 -37 c-30 -31 -37 -45 -37 -78 0 -39 -6 -46 -93 -130
-109 -105 -258 -240 -307 -280 -19 -16 -37 -31 -40 -34 -3 -3 -45 -39 -95 -80
-49 -40 -97 -81 -106 -89 -9 -9 -40 -37 -70 -62 -30 -26 -79 -72 -110 -102
-31 -30 -72 -59 -90 -66 -19 -6 -83 -14 -144 -17 -60 -3 -138 -7 -172 -8 -85
-4 -107 11 -98 68 8 54 16 114 20 151 2 17 4 30 5 30 1 0 3 11 4 25 7 64 19
146 21 150 2 3 7 32 10 65 4 32 9 66 10 74 2 9 4 25 5 36 0 11 17 39 38 62 21
23 53 67 72 98 19 31 73 110 120 175 47 65 92 128 100 140 8 12 55 73 103 136
96 124 145 176 224 235 29 21 66 57 84 79 18 22 35 40 38 40 4 0 29 -15 57
-33z m-2633 -438 c11 -7 29 -20 40 -30 18 -17 20 -17 49 1 l30 18 92 -71 c50
-39 100 -80 112 -92 11 -11 36 -33 55 -50 19 -16 72 -64 119 -105 47 -42 100
-89 119 -105 18 -17 46 -42 62 -56 27 -25 53 -47 159 -134 25 -21 46 -38 48
-40 1 -1 4 -11 6 -21 3 -11 9 -39 16 -64 6 -25 13 -58 16 -75 3 -16 18 -80 33
-141 l28 -111 -26 -15 c-18 -11 -46 -15 -91 -12 -135 7 -244 20 -330 40 -14 3
-36 8 -50 10 -74 12 -54 0 -490 290 -151 101 -289 197 -307 213 -18 17 -37 31
-42 31 -20 0 -11 26 46 125 87 153 261 405 279 405 3 0 15 -5 27 -11z m3305
-408 c43 -77 68 -142 97 -251 2 -8 17 -61 33 -117 29 -100 31 -152 8 -154 -6
-1 -20 -3 -31 -5 -21 -4 -78 -8 -235 -19 -52 -4 -108 -8 -125 -10 -103 -11
-143 -16 -165 -20 -23 -3 -78 -10 -160 -20 -19 -2 -51 -6 -70 -9 -38 -6 -144
-17 -200 -21 -71 -5 -164 -17 -172 -21 -4 -3 -15 -1 -25 4 -14 8 -7 19 48 73
36 35 78 75 94 89 52 43 148 124 174 145 13 11 33 29 45 40 12 11 43 38 70 60
28 22 62 51 76 65 15 14 64 59 110 100 46 41 108 99 139 129 32 31 67 55 81
56 14 2 27 3 30 4 3 1 16 21 30 46 l24 44 37 -58 c20 -32 60 -100 87 -150z
m-1564 -207 c-1 -30 -11 -109 -19 -154 -2 -14 -7 -50 -10 -80 -15 -142 -25
-203 -37 -217 -6 -8 -34 -13 -67 -13 -59 0 -150 36 -200 79 -21 19 -22 23 -8
44 8 12 23 31 34 42 10 11 50 61 88 110 108 141 191 228 210 222 5 -2 9 -17 9
-33z m-2107 -15 c18 -6 47 -11 66 -12 18 -2 54 -17 79 -35 26 -18 50 -32 53
-32 4 0 24 -13 45 -30 21 -16 40 -30 43 -30 4 0 69 -41 127 -80 49 -33 153
-100 156 -100 8 0 44 -35 44 -42 0 -8 -89 -3 -120 7 -8 2 -31 7 -50 10 -19 3
-57 10 -85 15 -44 8 -96 15 -185 25 -14 2 -41 5 -60 8 -19 3 -62 9 -95 12 -33
4 -74 10 -91 15 -17 4 -54 7 -83 6 l-52 -1 5 35 c15 102 116 261 156 244 8 -3
30 -10 47 -15z m1427 -176 c50 -38 93 -71 94 -75 2 -5 8 -8 13 -8 5 0 38 -19
73 -42 53 -36 64 -48 64 -70 -2 -55 -213 -120 -267 -81 -10 7 -22 27 -26 45
-9 38 -7 32 -30 118 -17 62 -28 180 -17 180 2 0 46 -30 96 -67z m-1439 -143
c39 -5 97 -12 130 -15 33 -4 67 -8 75 -10 8 -2 42 -7 75 -11 33 -3 69 -8 80
-11 11 -3 27 -5 35 -5 8 0 83 -14 165 -30 83 -16 161 -32 175 -34 26 -5 222
-122 228 -136 2 -4 8 -8 13 -8 6 0 15 -5 22 -10 7 -6 59 -44 117 -84 58 -40
113 -83 124 -94 18 -21 18 -22 -11 -49 -17 -16 -79 -74 -139 -129 -136 -127
-202 -186 -223 -200 -13 -9 -142 -38 -216 -49 -22 -4 -50 -9 -135 -25 -30 -6
-71 -13 -90 -16 -19 -2 -44 -7 -56 -9 -23 -5 -82 -15 -123 -20 -14 -2 -26 -4
-26 -5 0 -1 -16 -3 -35 -6 -19 -2 -57 -8 -85 -14 -27 -5 -70 -12 -95 -15 -25
-3 -52 -7 -60 -10 -24 -7 -145 -26 -170 -27 -21 -1 -29 5 -32 25 -2 18 -10 22
-48 25 -25 2 -49 7 -54 12 -22 21 -23 276 -2 387 3 11 7 44 11 74 3 30 10 77
16 104 5 28 11 59 13 70 2 11 9 38 15 60 6 22 13 56 16 75 14 90 32 135 56
147 108 53 130 57 234 43z m3700 -60 c16 -18 26 -20 69 -14 28 3 54 8 58 10
16 10 24 -34 35 -191 9 -138 9 -230 0 -295 -13 -88 -14 -90 -27 -193 -7 -53
-15 -99 -19 -101 -3 -2 -23 -7 -43 -10 -20 -3 -60 -14 -87 -25 -50 -19 -110
-21 -191 -6 -19 4 -51 8 -70 10 -19 2 -64 6 -100 10 -76 8 -156 14 -260 19
-255 14 -246 12 -347 74 -52 31 -102 61 -113 67 -11 5 -20 13 -20 17 0 5 -5 8
-10 8 -12 0 -134 81 -138 92 -2 5 -8 8 -13 8 -13 0 -149 101 -168 124 -14 17
13 46 191 206 96 86 125 103 181 105 80 3 256 22 362 38 22 4 60 9 85 12 46 6
106 14 150 20 58 9 111 14 210 21 58 3 106 7 107 8 1 1 33 3 70 4 59 3 72 0
88 -18z m-1907 -69 c7 -1 11 -5 8 -9 -12 -20 14 -35 61 -34 39 1 60 -5 96 -28
26 -16 47 -38 48 -47 0 -10 0 -65 -1 -122 -1 -94 0 -103 14 -92 9 8 16 21 16
30 0 9 8 27 17 41 l17 24 11 -35 c7 -19 13 -61 14 -94 2 -54 -2 -66 -29 -103
-39 -55 -58 -62 -81 -31 -24 33 -42 15 -30 -29 9 -29 7 -34 -22 -54 -36 -26
-105 -50 -112 -39 -2 4 5 22 16 39 23 38 23 42 6 42 -8 0 -40 -25 -71 -55 -38
-36 -67 -55 -85 -56 -63 -3 -138 25 -109 42 7 4 15 7 18 6 3 0 15 5 28 12 35
18 22 36 -24 33 -23 -2 -47 3 -59 12 -18 13 -22 13 -36 0 -15 -14 -19 -12 -38
14 -12 17 -21 37 -21 46 0 19 21 21 38 4 9 -9 12 -6 12 15 0 20 -10 34 -40 55
-29 20 -39 34 -40 55 0 29 9 34 27 16 8 -8 14 -6 22 9 6 10 9 21 7 23 -9 10
-14 107 -8 136 4 17 26 54 49 80 31 37 49 49 73 51 18 1 46 10 63 19 34 18 92
31 117 27 8 -1 21 -3 28 -3z m-764 -47 c38 -9 99 -14 220 -19 65 -2 121 -6
123 -9 2 -2 11 -28 18 -57 13 -48 13 -56 -2 -79 -21 -34 -71 -80 -87 -80 -11
0 -207 123 -242 153 -8 7 -20 17 -27 22 -7 6 -29 21 -49 35 -53 35 -58 53 -11
45 20 -3 45 -8 57 -11z m1426 -4 c0 -4 -50 -55 -110 -112 -122 -113 -140 -121
-198 -78 -32 24 -69 83 -76 121 -4 25 9 59 28 71 15 11 356 9 356 -2z m-982
-20 c3 -7 -3 -19 -13 -26 -21 -16 -45 -2 -45 25 0 20 52 21 58 1z m-98 -250
c0 -5 -7 -10 -16 -10 -8 0 -12 5 -9 10 3 6 10 10 16 10 5 0 9 -4 9 -10z m916
-87 c43 -31 140 -97 214 -146 129 -85 180 -124 180 -136 0 -7 -194 -4 -280 4
-30 2 -78 7 -107 9 -29 3 -72 8 -95 12 -24 4 -50 8 -58 9 -90 13 -112 19 -121
37 -11 21 -9 25 45 82 15 17 41 60 57 96 29 63 51 90 74 90 7 0 48 -26 91 -57z
m-941 14 c27 -24 37 -41 39 -69 2 -21 11 -48 20 -62 16 -26 22 -65 9 -67 -5 0
-15 -2 -23 -4 -8 -2 -26 -7 -40 -10 -14 -3 -43 -8 -65 -10 -22 -2 -71 -14
-109 -25 -99 -31 -216 -50 -216 -35 0 6 71 77 207 206 40 38 130 109 138 109
2 0 19 -15 40 -33z m138 -297 c-4 -80 -13 -160 -23 -200 -5 -19 -12 -53 -16
-74 -5 -34 -92 -184 -129 -222 -5 -6 -21 -26 -35 -44 -14 -18 -30 -38 -35 -44
-6 -6 -42 -49 -80 -96 -38 -47 -72 -87 -75 -90 -3 -3 -28 -32 -55 -65 -28 -33
-53 -62 -56 -65 -3 -3 -39 -45 -80 -95 -208 -251 -221 -265 -253 -265 -24 0
-44 -13 -93 -62 l-63 -62 -34 16 c-28 14 -209 158 -310 247 -122 109 -226 223
-226 249 0 5 33 37 73 70 39 33 95 82 124 109 28 26 70 64 94 82 23 19 47 40
53 46 6 6 72 57 146 115 74 58 142 112 151 120 28 27 69 60 74 60 2 0 15 10
27 23 13 12 53 48 88 79 36 31 79 69 97 85 30 27 105 48 308 88 11 2 48 10 83
18 34 9 62 13 62 10 0 -3 7 0 15 7 8 7 15 10 15 7 0 -2 15 -1 33 2 17 4 52 7
77 7 l45 -1 -2 -55z m157 -21 c8 -14 1 -29 -32 -71 -90 -113 -112 -124 -97
-46 4 24 8 62 9 85 0 68 4 71 61 60 30 -6 54 -17 59 -28z m359 -14 c13 -27 24
-54 25 -60 1 -5 17 -56 35 -113 18 -57 31 -105 28 -108 -11 -12 -44 8 -102 61
-33 30 -102 90 -152 132 -51 43 -93 85 -93 93 0 29 69 50 155 47 l80 -2 24
-50z m169 29 c15 -2 61 -6 102 -9 41 -3 98 -8 125 -10 28 -2 106 -7 175 -10
206 -10 240 -15 240 -36 0 -5 5 -9 10 -9 13 0 164 -100 168 -112 2 -4 8 -8 13
-8 9 0 287 -186 299 -199 3 -4 32 -26 65 -51 67 -50 142 -125 150 -152 3 -9
16 -18 28 -20 12 -2 27 -14 34 -28 11 -23 7 -36 -39 -125 -28 -55 -58 -108
-66 -117 -8 -10 -12 -18 -7 -18 4 0 -4 -15 -19 -34 -14 -19 -26 -38 -26 -41 0
-10 -159 -216 -198 -257 -20 -21 -41 -38 -47 -38 -5 1 -23 19 -38 41 -27 40
-29 40 -52 25 -13 -9 -27 -16 -29 -16 -6 0 -136 111 -182 155 -17 17 -75 71
-128 120 -53 50 -121 113 -150 140 -30 28 -77 70 -106 95 -79 68 -185 167
-262 244 -49 50 -71 81 -79 110 -5 23 -13 50 -17 61 -3 11 -7 23 -8 28 -1 4
-3 9 -4 12 -1 3 -3 8 -5 13 -1 4 -5 15 -9 24 -4 9 -9 22 -10 30 -2 7 -6 20 -9
28 -10 26 -27 85 -27 93 0 4 -5 19 -10 33 -15 39 3 57 52 49 21 -4 50 -8 66
-11z m947 -59 c61 -3 122 -8 136 -10 14 -3 61 -7 105 -11 43 -3 88 -7 99 -9
123 -15 163 -18 179 -16 10 1 30 -9 45 -23 20 -20 36 -26 60 -24 57 5 57 -22
-3 -168 -115 -278 -114 -277 -168 -231 -67 56 -99 80 -318 237 -73 52 -136 94
-140 93 -5 -1 -14 4 -20 12 -7 8 -16 15 -21 15 -15 0 -169 123 -169 135 0 9
16 12 53 9 28 -1 102 -5 162 -9z m-2345 -18 c0 -19 -109 -120 -260 -242 -41
-33 -84 -67 -95 -77 -16 -13 -112 -88 -160 -125 -55 -43 -140 -114 -194 -163
-22 -20 -40 -29 -50 -24 -44 19 -66 15 -103 -20 -67 -62 -71 -60 -123 48 -25
52 -45 97 -45 99 0 3 -10 26 -22 53 -12 27 -23 51 -23 54 -1 3 -9 30 -18 60
-15 51 -21 90 -18 115 1 10 58 36 71 34 3 -1 22 6 44 15 46 19 72 26 146 36
30 4 66 11 80 14 14 4 41 9 60 12 19 3 42 7 50 9 8 3 31 7 50 9 19 3 53 8 75
12 22 3 49 7 60 9 11 2 34 6 50 8 17 3 46 8 65 11 19 3 46 8 60 11 14 3 42 8
62 10 21 2 55 8 75 14 21 5 60 12 88 16 27 3 51 8 54 11 9 9 21 4 21 -9z m976
-18 c122 -97 157 -127 301 -264 81 -76 76 -66 144 -315 12 -41 28 -100 36
-130 8 -30 17 -62 19 -70 2 -8 8 -33 14 -55 6 -22 22 -92 36 -155 28 -129 26
-120 49 -215 9 -38 19 -77 22 -85 3 -8 7 -22 9 -31 2 -8 10 -41 18 -73 13 -50
13 -61 1 -80 -8 -12 -13 -36 -10 -56 17 -139 18 -127 -17 -139 -47 -14 -107
-29 -148 -35 -19 -3 -48 -8 -65 -11 -40 -7 -140 -23 -190 -31 -52 -8 -130 -8
-349 0 -153 6 -185 10 -220 28 -49 25 -57 35 -51 68 3 23 6 53 20 205 2 28 7
75 10 105 8 79 14 145 20 225 6 85 14 175 20 235 3 25 8 79 11 120 3 41 7 89
9 105 3 37 15 131 21 167 2 15 6 54 9 85 14 179 10 168 104 300 104 147 114
153 177 102z m-2058 -112 c3 -12 -3 -17 -21 -17 -26 0 -44 25 -24 34 21 9 42
1 45 -17z m1747 -254 c-2 -16 -6 -55 -10 -88 -4 -33 -9 -71 -10 -85 -2 -14 -5
-43 -9 -65 -3 -22 -8 -71 -11 -110 -3 -38 -7 -97 -10 -130 -3 -33 -7 -94 -10
-135 -4 -41 -8 -97 -11 -125 -3 -27 -7 -63 -8 -80 -2 -16 -7 -64 -11 -105 -12
-108 -12 -107 -14 -140 -1 -20 -14 -45 -41 -74 -35 -37 -40 -49 -40 -90 0 -25
-4 -46 -8 -46 -4 0 -50 13 -102 29 -101 31 -175 52 -200 57 -77 13 -138 39
-223 92 -54 34 -101 62 -105 62 -4 0 -13 9 -20 20 -11 18 -3 32 69 127 45 60
86 113 93 118 6 6 40 46 76 90 35 44 69 85 75 91 5 6 24 28 40 49 17 20 35 42
40 49 6 6 30 36 55 66 25 30 49 60 55 66 5 6 24 28 40 49 17 21 35 43 40 49 6
6 64 75 129 153 65 79 122 141 126 138 4 -3 6 -17 5 -32z m815 -86 c29 -26
195 -174 299 -267 40 -36 97 -87 126 -115 242 -231 318 -302 355 -328 9 -7 20
-25 24 -42 4 -16 16 -35 27 -43 30 -21 22 -47 -29 -94 -52 -46 -217 -142 -277
-160 -19 -6 -35 -15 -35 -20 0 -4 -5 -8 -11 -8 -6 0 -48 -18 -94 -40 -117 -57
-126 -55 -154 26 -12 36 -24 74 -26 83 -2 9 -22 86 -45 171 -55 205 -210 827
-210 845 0 22 22 18 50 -8z m-2323 -244 c-29 -30 -45 -26 -25 6 12 19 37 32
47 24 3 -2 -7 -16 -22 -30z m663 -567 c0 -17 -26 -39 -40 -34 -6 2 -4 12 5 26
18 25 35 29 35 8z m723 -322 c-4 -10 -9 -12 -15 -6 -12 12 -1 35 12 27 5 -3 6
-13 3 -21z"/>
<path d="M5434 4343 c-33 -6 -86 -79 -95 -131 -12 -59 16 -112 69 -132 21 -8
39 -14 42 -13 3 1 19 3 35 6 45 8 87 26 100 44 15 20 16 100 2 128 -18 34 -95
105 -114 104 -10 -1 -28 -4 -39 -6z m69 -57 c68 -42 85 -105 42 -148 -33 -33
-77 -42 -121 -23 -29 12 -34 19 -34 47 l0 33 23 -28 c18 -23 28 -27 57 -23 19
3 37 5 40 5 3 1 6 9 7 19 1 9 3 22 5 28 2 7 -10 28 -25 47 -25 32 -31 35 -54
26 -34 -13 -48 -1 -27 22 22 25 41 24 87 -5z"/>
</g>
</svg>
